<mxfile host="app.diagrams.net" agent="Mozilla/5.0 (Windows NT 10.0; Win64; x64) AppleWebKit/537.36 (KHTML, like Gecko) Chrome/131.0.0.0 Safari/537.36" version="24.8.3" pages="15">
  <diagram name="Page-1" id="7xsKH6pPMwgzXLg-aELs">
    <mxGraphModel dx="880" dy="468" grid="1" gridSize="10" guides="1" tooltips="1" connect="1" arrows="1" fold="1" page="1" pageScale="1" pageWidth="850" pageHeight="1100" math="0" shadow="0">
      <root>
        <mxCell id="0" />
        <mxCell id="1" parent="0" />
        <mxCell id="hEX6vRJ63KsdVSKcUMxn-11" value="" style="edgeStyle=orthogonalEdgeStyle;rounded=0;orthogonalLoop=1;jettySize=auto;html=1;" parent="1" source="hEX6vRJ63KsdVSKcUMxn-1" target="hEX6vRJ63KsdVSKcUMxn-2" edge="1">
          <mxGeometry relative="1" as="geometry" />
        </mxCell>
        <mxCell id="hEX6vRJ63KsdVSKcUMxn-1" value="Start" style="ellipse;whiteSpace=wrap;html=1;" parent="1" vertex="1">
          <mxGeometry x="367.5" y="60" width="165" height="90" as="geometry" />
        </mxCell>
        <mxCell id="hEX6vRJ63KsdVSKcUMxn-3" value="Menunjukkan nilai dari analog potensio" style="shape=parallelogram;perimeter=parallelogramPerimeter;whiteSpace=wrap;html=1;fixedSize=1;" parent="1" vertex="1">
          <mxGeometry x="355" y="320" width="190" height="90" as="geometry" />
        </mxCell>
        <mxCell id="hEX6vRJ63KsdVSKcUMxn-14" value="" style="endArrow=none;html=1;rounded=0;" parent="1" source="hEX6vRJ63KsdVSKcUMxn-2" edge="1">
          <mxGeometry width="50" height="50" relative="1" as="geometry">
            <mxPoint x="410" y="290" as="sourcePoint" />
            <mxPoint x="450" y="230" as="targetPoint" />
          </mxGeometry>
        </mxCell>
        <mxCell id="hEX6vRJ63KsdVSKcUMxn-2" value="Tentukan nilai berdasarkan analog potensio" style="shape=parallelogram;perimeter=parallelogramPerimeter;whiteSpace=wrap;html=1;fixedSize=1;" parent="1" vertex="1">
          <mxGeometry x="360" y="190" width="180" height="90" as="geometry" />
        </mxCell>
        <mxCell id="hEX6vRJ63KsdVSKcUMxn-24" value="" style="endArrow=classic;startArrow=classic;html=1;rounded=0;" parent="1" edge="1">
          <mxGeometry width="50" height="50" relative="1" as="geometry">
            <mxPoint x="450" y="320" as="sourcePoint" />
            <mxPoint x="449.5" y="280" as="targetPoint" />
            <Array as="points" />
          </mxGeometry>
        </mxCell>
      </root>
    </mxGraphModel>
  </diagram>
  <diagram id="P4kOJuHA-Qv2yGfM0axs" name="Page-2">
    <mxGraphModel dx="880" dy="468" grid="1" gridSize="10" guides="1" tooltips="1" connect="1" arrows="1" fold="1" page="1" pageScale="1" pageWidth="850" pageHeight="1100" math="0" shadow="0">
      <root>
        <mxCell id="0" />
        <mxCell id="1" parent="0" />
        <mxCell id="n6y1z-Yo7t-sg9VH4C1c-1" value="" style="edgeStyle=orthogonalEdgeStyle;rounded=0;orthogonalLoop=1;jettySize=auto;html=1;" edge="1" source="n6y1z-Yo7t-sg9VH4C1c-2" target="n6y1z-Yo7t-sg9VH4C1c-5" parent="1">
          <mxGeometry relative="1" as="geometry" />
        </mxCell>
        <mxCell id="n6y1z-Yo7t-sg9VH4C1c-2" value="Start" style="ellipse;whiteSpace=wrap;html=1;" vertex="1" parent="1">
          <mxGeometry x="342.5" y="50" width="165" height="90" as="geometry" />
        </mxCell>
        <mxCell id="n6y1z-Yo7t-sg9VH4C1c-3" value="Menampilkan nilai dari analog potensio" style="shape=parallelogram;perimeter=parallelogramPerimeter;whiteSpace=wrap;html=1;fixedSize=1;" vertex="1" parent="1">
          <mxGeometry x="330" y="310" width="190" height="90" as="geometry" />
        </mxCell>
        <mxCell id="n6y1z-Yo7t-sg9VH4C1c-4" value="" style="endArrow=none;html=1;rounded=0;" edge="1" source="n6y1z-Yo7t-sg9VH4C1c-5" parent="1">
          <mxGeometry width="50" height="50" relative="1" as="geometry">
            <mxPoint x="385" y="280" as="sourcePoint" />
            <mxPoint x="425" y="220" as="targetPoint" />
          </mxGeometry>
        </mxCell>
        <mxCell id="n6y1z-Yo7t-sg9VH4C1c-5" value="Tentukan nilai voltage berdasarkan analog potensio" style="shape=parallelogram;perimeter=parallelogramPerimeter;whiteSpace=wrap;html=1;fixedSize=1;" vertex="1" parent="1">
          <mxGeometry x="335" y="180" width="180" height="90" as="geometry" />
        </mxCell>
        <mxCell id="n6y1z-Yo7t-sg9VH4C1c-6" value="" style="endArrow=classic;startArrow=classic;html=1;rounded=0;" edge="1" parent="1">
          <mxGeometry width="50" height="50" relative="1" as="geometry">
            <mxPoint x="425" y="310" as="sourcePoint" />
            <mxPoint x="424.5" y="270" as="targetPoint" />
            <Array as="points" />
          </mxGeometry>
        </mxCell>
      </root>
    </mxGraphModel>
  </diagram>
  <diagram id="WOu5z1Ee6XybZ4AOHJIU" name="Page-3">
    <mxGraphModel dx="197" dy="476" grid="1" gridSize="10" guides="1" tooltips="1" connect="1" arrows="1" fold="1" page="1" pageScale="1" pageWidth="850" pageHeight="1100" math="0" shadow="0">
      <root>
        <mxCell id="0" />
        <mxCell id="1" parent="0" />
        <mxCell id="LO2GCd7thXTgHZh84h_5-7" value="" style="edgeStyle=orthogonalEdgeStyle;rounded=0;orthogonalLoop=1;jettySize=auto;html=1;" parent="1" source="LO2GCd7thXTgHZh84h_5-1" target="LO2GCd7thXTgHZh84h_5-2" edge="1">
          <mxGeometry relative="1" as="geometry" />
        </mxCell>
        <mxCell id="LO2GCd7thXTgHZh84h_5-1" value="Start" style="ellipse;whiteSpace=wrap;html=1;" parent="1" vertex="1">
          <mxGeometry x="370" y="70" width="140" height="90" as="geometry" />
        </mxCell>
        <mxCell id="LO2GCd7thXTgHZh84h_5-6" style="edgeStyle=orthogonalEdgeStyle;rounded=0;orthogonalLoop=1;jettySize=auto;html=1;exitX=0.5;exitY=1;exitDx=0;exitDy=0;entryX=0.5;entryY=0;entryDx=0;entryDy=0;" parent="1" source="LO2GCd7thXTgHZh84h_5-2" target="LO2GCd7thXTgHZh84h_5-3" edge="1">
          <mxGeometry relative="1" as="geometry" />
        </mxCell>
        <mxCell id="LO2GCd7thXTgHZh84h_5-2" value="Pilih nilai pada analog&amp;nbsp;&lt;div&gt;potensio (0-1240)&lt;/div&gt;" style="shape=parallelogram;perimeter=parallelogramPerimeter;whiteSpace=wrap;html=1;fixedSize=1;" parent="1" vertex="1">
          <mxGeometry x="350" y="200" width="180" height="90" as="geometry" />
        </mxCell>
        <mxCell id="LO2GCd7thXTgHZh84h_5-3" value="Ubah nilai analog menjadi PWM (Voltage) (0-255)" style="rounded=0;whiteSpace=wrap;html=1;" parent="1" vertex="1">
          <mxGeometry x="360" y="330" width="160" height="90" as="geometry" />
        </mxCell>
        <mxCell id="LO2GCd7thXTgHZh84h_5-4" value="Tampilkan nilai voltage potensio" style="shape=parallelogram;perimeter=parallelogramPerimeter;whiteSpace=wrap;html=1;fixedSize=1;" parent="1" vertex="1">
          <mxGeometry x="350" y="460" width="170" height="80" as="geometry" />
        </mxCell>
        <mxCell id="LO2GCd7thXTgHZh84h_5-5" style="edgeStyle=orthogonalEdgeStyle;rounded=0;orthogonalLoop=1;jettySize=auto;html=1;exitX=0.5;exitY=1;exitDx=0;exitDy=0;entryX=0.541;entryY=-0.037;entryDx=0;entryDy=0;entryPerimeter=0;" parent="1" source="LO2GCd7thXTgHZh84h_5-3" target="LO2GCd7thXTgHZh84h_5-4" edge="1">
          <mxGeometry relative="1" as="geometry" />
        </mxCell>
        <mxCell id="LO2GCd7thXTgHZh84h_5-13" value="" style="endArrow=none;html=1;rounded=0;" parent="1" edge="1">
          <mxGeometry width="50" height="50" relative="1" as="geometry">
            <mxPoint x="510" y="510" as="sourcePoint" />
            <mxPoint x="590" y="510" as="targetPoint" />
          </mxGeometry>
        </mxCell>
        <mxCell id="LO2GCd7thXTgHZh84h_5-14" value="" style="endArrow=none;html=1;rounded=0;" parent="1" edge="1">
          <mxGeometry width="50" height="50" relative="1" as="geometry">
            <mxPoint x="590.0033333333332" y="510" as="sourcePoint" />
            <mxPoint x="590" y="240" as="targetPoint" />
          </mxGeometry>
        </mxCell>
        <mxCell id="LO2GCd7thXTgHZh84h_5-15" value="" style="endArrow=classic;html=1;rounded=0;" parent="1" edge="1">
          <mxGeometry width="50" height="50" relative="1" as="geometry">
            <mxPoint x="590" y="240" as="sourcePoint" />
            <mxPoint x="520" y="240" as="targetPoint" />
          </mxGeometry>
        </mxCell>
      </root>
    </mxGraphModel>
  </diagram>
  <diagram id="WzlIhdNzlnu4qb8vGgma" name="Page-4">
    <mxGraphModel dx="880" dy="468" grid="1" gridSize="10" guides="1" tooltips="1" connect="1" arrows="1" fold="1" page="1" pageScale="1" pageWidth="850" pageHeight="1100" math="0" shadow="0">
      <root>
        <mxCell id="0" />
        <mxCell id="1" parent="0" />
        <mxCell id="aYpGiaVqw2s0bX2Neu3e-1" value="" style="edgeStyle=orthogonalEdgeStyle;rounded=0;orthogonalLoop=1;jettySize=auto;html=1;" edge="1" parent="1" source="aYpGiaVqw2s0bX2Neu3e-2" target="aYpGiaVqw2s0bX2Neu3e-4">
          <mxGeometry relative="1" as="geometry" />
        </mxCell>
        <mxCell id="aYpGiaVqw2s0bX2Neu3e-2" value="Start" style="ellipse;whiteSpace=wrap;html=1;" vertex="1" parent="1">
          <mxGeometry x="370" y="70" width="140" height="90" as="geometry" />
        </mxCell>
        <mxCell id="aYpGiaVqw2s0bX2Neu3e-3" style="edgeStyle=orthogonalEdgeStyle;rounded=0;orthogonalLoop=1;jettySize=auto;html=1;exitX=0.5;exitY=1;exitDx=0;exitDy=0;entryX=0.5;entryY=0;entryDx=0;entryDy=0;" edge="1" parent="1" source="aYpGiaVqw2s0bX2Neu3e-4" target="aYpGiaVqw2s0bX2Neu3e-5">
          <mxGeometry relative="1" as="geometry" />
        </mxCell>
        <mxCell id="aYpGiaVqw2s0bX2Neu3e-4" value="Pilih nilai pada analog&amp;nbsp;&lt;div&gt;potensio (0-1240)&lt;/div&gt;" style="shape=parallelogram;perimeter=parallelogramPerimeter;whiteSpace=wrap;html=1;fixedSize=1;" vertex="1" parent="1">
          <mxGeometry x="350" y="200" width="180" height="90" as="geometry" />
        </mxCell>
        <mxCell id="aYpGiaVqw2s0bX2Neu3e-5" value="Ubah nilai analog menjadi nilaai sudut (Voltage) (0-255)" style="rounded=0;whiteSpace=wrap;html=1;" vertex="1" parent="1">
          <mxGeometry x="360" y="330" width="160" height="90" as="geometry" />
        </mxCell>
        <mxCell id="aYpGiaVqw2s0bX2Neu3e-6" value="Tampilkan nilai sudut&amp;nbsp;&lt;div&gt;ke servo&lt;/div&gt;" style="shape=parallelogram;perimeter=parallelogramPerimeter;whiteSpace=wrap;html=1;fixedSize=1;" vertex="1" parent="1">
          <mxGeometry x="350" y="460" width="170" height="80" as="geometry" />
        </mxCell>
        <mxCell id="aYpGiaVqw2s0bX2Neu3e-7" style="edgeStyle=orthogonalEdgeStyle;rounded=0;orthogonalLoop=1;jettySize=auto;html=1;exitX=0.5;exitY=1;exitDx=0;exitDy=0;entryX=0.541;entryY=-0.037;entryDx=0;entryDy=0;entryPerimeter=0;" edge="1" parent="1" source="aYpGiaVqw2s0bX2Neu3e-5" target="aYpGiaVqw2s0bX2Neu3e-6">
          <mxGeometry relative="1" as="geometry" />
        </mxCell>
        <mxCell id="aYpGiaVqw2s0bX2Neu3e-8" value="" style="endArrow=none;html=1;rounded=0;" edge="1" parent="1">
          <mxGeometry width="50" height="50" relative="1" as="geometry">
            <mxPoint x="510" y="510" as="sourcePoint" />
            <mxPoint x="590" y="510" as="targetPoint" />
          </mxGeometry>
        </mxCell>
        <mxCell id="aYpGiaVqw2s0bX2Neu3e-9" value="" style="endArrow=none;html=1;rounded=0;" edge="1" parent="1">
          <mxGeometry width="50" height="50" relative="1" as="geometry">
            <mxPoint x="590.0033333333332" y="510" as="sourcePoint" />
            <mxPoint x="590" y="240" as="targetPoint" />
          </mxGeometry>
        </mxCell>
        <mxCell id="aYpGiaVqw2s0bX2Neu3e-10" value="" style="endArrow=classic;html=1;rounded=0;" edge="1" parent="1">
          <mxGeometry width="50" height="50" relative="1" as="geometry">
            <mxPoint x="590" y="240" as="sourcePoint" />
            <mxPoint x="520" y="240" as="targetPoint" />
          </mxGeometry>
        </mxCell>
      </root>
    </mxGraphModel>
  </diagram>
  <diagram id="83VCnpNajWrUhug65tjm" name="Page-5">
    <mxGraphModel dx="880" dy="468" grid="1" gridSize="10" guides="1" tooltips="1" connect="1" arrows="1" fold="1" page="1" pageScale="1" pageWidth="850" pageHeight="1100" math="0" shadow="0">
      <root>
        <mxCell id="0" />
        <mxCell id="1" parent="0" />
      </root>
    </mxGraphModel>
  </diagram>
  <diagram id="vIIB17qesLdT2yFIIE_M" name="Page-6">
    <mxGraphModel dx="1600" dy="942" grid="1" gridSize="10" guides="1" tooltips="1" connect="1" arrows="1" fold="1" page="1" pageScale="1" pageWidth="850" pageHeight="1100" math="0" shadow="0">
      <root>
        <mxCell id="0" />
        <mxCell id="1" parent="0" />
        <mxCell id="eRvDTjzg-Syd29gc3DkY-22" value="Mulai" style="rounded=1;arcSize=40;strokeWidth=2" vertex="1" parent="1">
          <mxGeometry x="281" y="430" width="69" height="49" as="geometry" />
        </mxCell>
        <mxCell id="eRvDTjzg-Syd29gc3DkY-23" value="Inisialisasi Serial 9600" style="rounded=1;arcSize=40;strokeWidth=2" vertex="1" parent="1">
          <mxGeometry x="223" y="529" width="187" height="49" as="geometry" />
        </mxCell>
        <mxCell id="eRvDTjzg-Syd29gc3DkY-24" value="Inisialisasi Sensor DHT" style="rounded=1;arcSize=40;strokeWidth=2" vertex="1" parent="1">
          <mxGeometry x="221" y="628" width="189" height="49" as="geometry" />
        </mxCell>
        <mxCell id="eRvDTjzg-Syd29gc3DkY-25" value="Loop" style="rhombus;strokeWidth=2;whiteSpace=wrap;" vertex="1" parent="1">
          <mxGeometry x="274" y="727" width="83" height="83" as="geometry" />
        </mxCell>
        <mxCell id="eRvDTjzg-Syd29gc3DkY-26" value="Baca Kelembaban" style="rounded=1;arcSize=40;strokeWidth=2" vertex="1" parent="1">
          <mxGeometry x="60" y="860" width="156" height="49" as="geometry" />
        </mxCell>
        <mxCell id="eRvDTjzg-Syd29gc3DkY-27" value="Baca Suhu" style="rounded=1;arcSize=40;strokeWidth=2" vertex="1" parent="1">
          <mxGeometry x="87" y="959" width="103" height="49" as="geometry" />
        </mxCell>
        <mxCell id="eRvDTjzg-Syd29gc3DkY-28" value="Apakah pembacaan gagal?" style="rhombus;strokeWidth=2;whiteSpace=wrap;" vertex="1" parent="1">
          <mxGeometry x="20" y="1058" width="237" height="237" as="geometry" />
        </mxCell>
        <mxCell id="eRvDTjzg-Syd29gc3DkY-29" value="Cetak Failed to read from DHT sensor!" style="rounded=1;arcSize=40;strokeWidth=2" vertex="1" parent="1">
          <mxGeometry x="108" y="1368" width="215" height="67" as="geometry" />
        </mxCell>
        <mxCell id="eRvDTjzg-Syd29gc3DkY-30" value="Cetak Humidity dan Temperature" style="rounded=1;arcSize=40;strokeWidth=2" vertex="1" parent="1">
          <mxGeometry x="373" y="1368" width="172" height="67" as="geometry" />
        </mxCell>
        <mxCell id="eRvDTjzg-Syd29gc3DkY-31" value="Tunggu 2 detik" style="rounded=1;arcSize=40;strokeWidth=2" vertex="1" parent="1">
          <mxGeometry x="451" y="1485" width="136" height="49" as="geometry" />
        </mxCell>
        <mxCell id="eRvDTjzg-Syd29gc3DkY-32" value="" style="curved=1;startArrow=none;endArrow=block;exitX=0.51;exitY=1;entryX=0.5;entryY=0;rounded=0;fontSize=12;startSize=8;endSize=8;" edge="1" parent="1" source="eRvDTjzg-Syd29gc3DkY-22" target="eRvDTjzg-Syd29gc3DkY-23">
          <mxGeometry relative="1" as="geometry">
            <Array as="points" />
          </mxGeometry>
        </mxCell>
        <mxCell id="eRvDTjzg-Syd29gc3DkY-33" value="" style="curved=1;startArrow=none;endArrow=block;exitX=0.5;exitY=1;entryX=0.5;entryY=0;rounded=0;fontSize=12;startSize=8;endSize=8;" edge="1" parent="1" source="eRvDTjzg-Syd29gc3DkY-23" target="eRvDTjzg-Syd29gc3DkY-24">
          <mxGeometry relative="1" as="geometry">
            <Array as="points" />
          </mxGeometry>
        </mxCell>
        <mxCell id="eRvDTjzg-Syd29gc3DkY-34" value="" style="curved=1;startArrow=none;endArrow=block;exitX=0.5;exitY=1;entryX=0.5;entryY=0;rounded=0;fontSize=12;startSize=8;endSize=8;" edge="1" parent="1" source="eRvDTjzg-Syd29gc3DkY-24" target="eRvDTjzg-Syd29gc3DkY-25">
          <mxGeometry relative="1" as="geometry">
            <Array as="points" />
          </mxGeometry>
        </mxCell>
        <mxCell id="eRvDTjzg-Syd29gc3DkY-35" value="" style="curved=1;startArrow=none;endArrow=block;exitX=0;exitY=0.69;entryX=0.5;entryY=0.01;rounded=0;fontSize=12;startSize=8;endSize=8;" edge="1" parent="1" source="eRvDTjzg-Syd29gc3DkY-25" target="eRvDTjzg-Syd29gc3DkY-26">
          <mxGeometry relative="1" as="geometry">
            <Array as="points">
              <mxPoint x="138" y="835" />
            </Array>
          </mxGeometry>
        </mxCell>
        <mxCell id="eRvDTjzg-Syd29gc3DkY-36" value="" style="curved=1;startArrow=none;endArrow=block;exitX=0.5;exitY=1.01;entryX=0.5;entryY=0.01;rounded=0;fontSize=12;startSize=8;endSize=8;" edge="1" parent="1" source="eRvDTjzg-Syd29gc3DkY-26" target="eRvDTjzg-Syd29gc3DkY-27">
          <mxGeometry relative="1" as="geometry">
            <Array as="points" />
          </mxGeometry>
        </mxCell>
        <mxCell id="eRvDTjzg-Syd29gc3DkY-37" value="" style="curved=1;startArrow=none;endArrow=block;exitX=0.5;exitY=1.01;entryX=0.5;entryY=0;rounded=0;fontSize=12;startSize=8;endSize=8;" edge="1" parent="1" source="eRvDTjzg-Syd29gc3DkY-27" target="eRvDTjzg-Syd29gc3DkY-28">
          <mxGeometry relative="1" as="geometry">
            <Array as="points" />
          </mxGeometry>
        </mxCell>
        <mxCell id="eRvDTjzg-Syd29gc3DkY-38" value="Ya" style="curved=1;startArrow=none;endArrow=block;exitX=0.5;exitY=1;entryX=0.33;entryY=0;rounded=0;fontSize=12;startSize=8;endSize=8;" edge="1" parent="1" source="eRvDTjzg-Syd29gc3DkY-28" target="eRvDTjzg-Syd29gc3DkY-29">
          <mxGeometry relative="1" as="geometry">
            <Array as="points">
              <mxPoint x="138" y="1332" />
            </Array>
          </mxGeometry>
        </mxCell>
        <mxCell id="eRvDTjzg-Syd29gc3DkY-39" value="" style="curved=1;startArrow=none;endArrow=block;exitX=0.72;exitY=0;entryX=0.5;entryY=1;rounded=0;fontSize=12;startSize=8;endSize=8;" edge="1" parent="1" source="eRvDTjzg-Syd29gc3DkY-29" target="eRvDTjzg-Syd29gc3DkY-25">
          <mxGeometry relative="1" as="geometry">
            <Array as="points">
              <mxPoint x="316" y="1332" />
            </Array>
          </mxGeometry>
        </mxCell>
        <mxCell id="eRvDTjzg-Syd29gc3DkY-40" value="Tidak" style="curved=1;startArrow=none;endArrow=block;exitX=1;exitY=0.74;entryX=0.5;entryY=0;rounded=0;fontSize=12;startSize=8;endSize=8;" edge="1" parent="1" source="eRvDTjzg-Syd29gc3DkY-28" target="eRvDTjzg-Syd29gc3DkY-30">
          <mxGeometry relative="1" as="geometry">
            <Array as="points">
              <mxPoint x="459" y="1332" />
            </Array>
          </mxGeometry>
        </mxCell>
        <mxCell id="eRvDTjzg-Syd29gc3DkY-41" value="" style="curved=1;startArrow=none;endArrow=block;exitX=0.5;exitY=1;entryX=0.28;entryY=0;rounded=0;fontSize=12;startSize=8;endSize=8;" edge="1" parent="1" source="eRvDTjzg-Syd29gc3DkY-30" target="eRvDTjzg-Syd29gc3DkY-31">
          <mxGeometry relative="1" as="geometry">
            <Array as="points">
              <mxPoint x="459" y="1460" />
            </Array>
          </mxGeometry>
        </mxCell>
        <mxCell id="eRvDTjzg-Syd29gc3DkY-42" value="" style="curved=1;startArrow=none;endArrow=block;exitX=0.72;exitY=0;entryX=1.01;entryY=0.63;rounded=0;fontSize=12;startSize=8;endSize=8;" edge="1" parent="1" source="eRvDTjzg-Syd29gc3DkY-31" target="eRvDTjzg-Syd29gc3DkY-25">
          <mxGeometry relative="1" as="geometry">
            <Array as="points">
              <mxPoint x="580" y="1460" />
              <mxPoint x="580" y="835" />
            </Array>
          </mxGeometry>
        </mxCell>
      </root>
    </mxGraphModel>
  </diagram>
  <diagram id="J1uG0B4viaiX-aqjHr5V" name="Page-7">
    <mxGraphModel dx="880" dy="518" grid="1" gridSize="10" guides="1" tooltips="1" connect="1" arrows="1" fold="1" page="1" pageScale="1" pageWidth="850" pageHeight="1100" math="0" shadow="0">
      <root>
        <mxCell id="0" />
        <mxCell id="1" parent="0" />
        <mxCell id="Z0ajDFj2CvX-1wqKtfaN-2" value="Mulai" style="rounded=1;arcSize=40;strokeWidth=2" vertex="1" parent="1">
          <mxGeometry x="286" y="240" width="69" height="49" as="geometry" />
        </mxCell>
        <mxCell id="Z0ajDFj2CvX-1wqKtfaN-3" value="Inisialisasi Serial 9600" style="rounded=1;arcSize=40;strokeWidth=2" vertex="1" parent="1">
          <mxGeometry x="227" y="339" width="187" height="49" as="geometry" />
        </mxCell>
        <mxCell id="Z0ajDFj2CvX-1wqKtfaN-4" value="Inisialisasi Sensor DHT" style="rounded=1;arcSize=40;strokeWidth=2" vertex="1" parent="1">
          <mxGeometry x="226" y="438" width="189" height="49" as="geometry" />
        </mxCell>
        <mxCell id="Z0ajDFj2CvX-1wqKtfaN-5" value="Inisialisasi Pin LED sebagai Output" style="rounded=1;arcSize=40;strokeWidth=2" vertex="1" parent="1">
          <mxGeometry x="211" y="537" width="218" height="67" as="geometry" />
        </mxCell>
        <mxCell id="Z0ajDFj2CvX-1wqKtfaN-6" value="Loop" style="rhombus;strokeWidth=2;whiteSpace=wrap;" vertex="1" parent="1">
          <mxGeometry x="279" y="654" width="83" height="83" as="geometry" />
        </mxCell>
        <mxCell id="Z0ajDFj2CvX-1wqKtfaN-7" value="Baca Kelembaban" style="rounded=1;arcSize=40;strokeWidth=2" vertex="1" parent="1">
          <mxGeometry x="60" y="787" width="156" height="49" as="geometry" />
        </mxCell>
        <mxCell id="Z0ajDFj2CvX-1wqKtfaN-8" value="Baca Suhu dalam Celcius" style="rounded=1;arcSize=40;strokeWidth=2" vertex="1" parent="1">
          <mxGeometry x="35" y="886" width="207" height="49" as="geometry" />
        </mxCell>
        <mxCell id="Z0ajDFj2CvX-1wqKtfaN-9" value="Apakah pembacaan gagal?" style="rhombus;strokeWidth=2;whiteSpace=wrap;" vertex="1" parent="1">
          <mxGeometry x="20" y="985" width="237" height="237" as="geometry" />
        </mxCell>
        <mxCell id="Z0ajDFj2CvX-1wqKtfaN-10" value="Cetak Failed to read from DHT sensor!" style="rounded=1;arcSize=40;strokeWidth=2" vertex="1" parent="1">
          <mxGeometry x="108" y="1304" width="215" height="67" as="geometry" />
        </mxCell>
        <mxCell id="Z0ajDFj2CvX-1wqKtfaN-11" value="Cetak Humidity dan Temperature ke Serial Monitor" style="rounded=1;arcSize=40;strokeWidth=2" vertex="1" parent="1">
          <mxGeometry x="373" y="1295" width="190" height="84" as="geometry" />
        </mxCell>
        <mxCell id="Z0ajDFj2CvX-1wqKtfaN-12" value="Apakah Suhu &gt;= 27 derajat?" style="rhombus;strokeWidth=2;whiteSpace=wrap;" vertex="1" parent="1">
          <mxGeometry x="355" y="1429" width="225" height="225" as="geometry" />
        </mxCell>
        <mxCell id="Z0ajDFj2CvX-1wqKtfaN-13" value="Nyalakan LED" style="rounded=1;arcSize=40;strokeWidth=2" vertex="1" parent="1">
          <mxGeometry x="318" y="1727" width="126" height="49" as="geometry" />
        </mxCell>
        <mxCell id="Z0ajDFj2CvX-1wqKtfaN-14" value="Matikan LED" style="rounded=1;arcSize=40;strokeWidth=2" vertex="1" parent="1">
          <mxGeometry x="495" y="1727" width="118" height="49" as="geometry" />
        </mxCell>
        <mxCell id="Z0ajDFj2CvX-1wqKtfaN-15" value="Tunggu 2 detik" style="rounded=1;arcSize=40;strokeWidth=2" vertex="1" parent="1">
          <mxGeometry x="486" y="1826" width="136" height="49" as="geometry" />
        </mxCell>
        <mxCell id="Z0ajDFj2CvX-1wqKtfaN-16" value="" style="curved=1;startArrow=none;endArrow=block;exitX=0.5;exitY=1;entryX=0.5;entryY=0;rounded=0;fontSize=12;startSize=8;endSize=8;" edge="1" parent="1" source="Z0ajDFj2CvX-1wqKtfaN-2" target="Z0ajDFj2CvX-1wqKtfaN-3">
          <mxGeometry relative="1" as="geometry">
            <Array as="points" />
          </mxGeometry>
        </mxCell>
        <mxCell id="Z0ajDFj2CvX-1wqKtfaN-17" value="" style="curved=1;startArrow=none;endArrow=block;exitX=0.5;exitY=1;entryX=0.5;entryY=0;rounded=0;fontSize=12;startSize=8;endSize=8;" edge="1" parent="1" source="Z0ajDFj2CvX-1wqKtfaN-3" target="Z0ajDFj2CvX-1wqKtfaN-4">
          <mxGeometry relative="1" as="geometry">
            <Array as="points" />
          </mxGeometry>
        </mxCell>
        <mxCell id="Z0ajDFj2CvX-1wqKtfaN-18" value="" style="curved=1;startArrow=none;endArrow=block;exitX=0.5;exitY=1;entryX=0.5;entryY=0;rounded=0;fontSize=12;startSize=8;endSize=8;" edge="1" parent="1" source="Z0ajDFj2CvX-1wqKtfaN-4" target="Z0ajDFj2CvX-1wqKtfaN-5">
          <mxGeometry relative="1" as="geometry">
            <Array as="points" />
          </mxGeometry>
        </mxCell>
        <mxCell id="Z0ajDFj2CvX-1wqKtfaN-19" value="" style="curved=1;startArrow=none;endArrow=block;exitX=0.5;exitY=0.99;entryX=0.5;entryY=0;rounded=0;fontSize=12;startSize=8;endSize=8;" edge="1" parent="1" source="Z0ajDFj2CvX-1wqKtfaN-5" target="Z0ajDFj2CvX-1wqKtfaN-6">
          <mxGeometry relative="1" as="geometry">
            <Array as="points" />
          </mxGeometry>
        </mxCell>
        <mxCell id="Z0ajDFj2CvX-1wqKtfaN-20" value="" style="curved=1;startArrow=none;endArrow=block;exitX=0;exitY=0.68;entryX=0.5;entryY=0;rounded=0;fontSize=12;startSize=8;endSize=8;" edge="1" parent="1" source="Z0ajDFj2CvX-1wqKtfaN-6" target="Z0ajDFj2CvX-1wqKtfaN-7">
          <mxGeometry relative="1" as="geometry">
            <Array as="points">
              <mxPoint x="138" y="762" />
            </Array>
          </mxGeometry>
        </mxCell>
        <mxCell id="Z0ajDFj2CvX-1wqKtfaN-21" value="" style="curved=1;startArrow=none;endArrow=block;exitX=0.5;exitY=1;entryX=0.5;entryY=0;rounded=0;fontSize=12;startSize=8;endSize=8;" edge="1" parent="1" source="Z0ajDFj2CvX-1wqKtfaN-7" target="Z0ajDFj2CvX-1wqKtfaN-8">
          <mxGeometry relative="1" as="geometry">
            <Array as="points" />
          </mxGeometry>
        </mxCell>
        <mxCell id="Z0ajDFj2CvX-1wqKtfaN-22" value="" style="curved=1;startArrow=none;endArrow=block;exitX=0.5;exitY=1;entryX=0.5;entryY=0;rounded=0;fontSize=12;startSize=8;endSize=8;" edge="1" parent="1" source="Z0ajDFj2CvX-1wqKtfaN-8" target="Z0ajDFj2CvX-1wqKtfaN-9">
          <mxGeometry relative="1" as="geometry">
            <Array as="points" />
          </mxGeometry>
        </mxCell>
        <mxCell id="Z0ajDFj2CvX-1wqKtfaN-23" value="Ya" style="curved=1;startArrow=none;endArrow=block;exitX=0.5;exitY=1;entryX=0.35;entryY=-0.01;rounded=0;fontSize=12;startSize=8;endSize=8;" edge="1" parent="1" source="Z0ajDFj2CvX-1wqKtfaN-9" target="Z0ajDFj2CvX-1wqKtfaN-10">
          <mxGeometry relative="1" as="geometry">
            <Array as="points">
              <mxPoint x="138" y="1258" />
            </Array>
          </mxGeometry>
        </mxCell>
        <mxCell id="Z0ajDFj2CvX-1wqKtfaN-24" value="" style="curved=1;startArrow=none;endArrow=block;exitX=0.71;exitY=-0.01;entryX=0.5;entryY=1;rounded=0;fontSize=12;startSize=8;endSize=8;" edge="1" parent="1" source="Z0ajDFj2CvX-1wqKtfaN-10" target="Z0ajDFj2CvX-1wqKtfaN-6">
          <mxGeometry relative="1" as="geometry">
            <Array as="points">
              <mxPoint x="320" y="1258" />
            </Array>
          </mxGeometry>
        </mxCell>
        <mxCell id="Z0ajDFj2CvX-1wqKtfaN-25" value="Tidak" style="curved=1;startArrow=none;endArrow=block;exitX=1;exitY=0.73;entryX=0.5;entryY=0;rounded=0;fontSize=12;startSize=8;endSize=8;" edge="1" parent="1" source="Z0ajDFj2CvX-1wqKtfaN-9" target="Z0ajDFj2CvX-1wqKtfaN-11">
          <mxGeometry relative="1" as="geometry">
            <Array as="points">
              <mxPoint x="468" y="1258" />
            </Array>
          </mxGeometry>
        </mxCell>
        <mxCell id="Z0ajDFj2CvX-1wqKtfaN-26" value="" style="curved=1;startArrow=none;endArrow=block;exitX=0.5;exitY=1;entryX=0.5;entryY=0;rounded=0;fontSize=12;startSize=8;endSize=8;" edge="1" parent="1" source="Z0ajDFj2CvX-1wqKtfaN-11" target="Z0ajDFj2CvX-1wqKtfaN-12">
          <mxGeometry relative="1" as="geometry">
            <Array as="points" />
          </mxGeometry>
        </mxCell>
        <mxCell id="Z0ajDFj2CvX-1wqKtfaN-27" value="Ya" style="curved=1;startArrow=none;endArrow=block;exitX=0.21;exitY=1;entryX=0.5;entryY=0.01;rounded=0;fontSize=12;startSize=8;endSize=8;" edge="1" parent="1" source="Z0ajDFj2CvX-1wqKtfaN-12" target="Z0ajDFj2CvX-1wqKtfaN-13">
          <mxGeometry relative="1" as="geometry">
            <Array as="points">
              <mxPoint x="382" y="1691" />
            </Array>
          </mxGeometry>
        </mxCell>
        <mxCell id="Z0ajDFj2CvX-1wqKtfaN-28" value="Tidak" style="curved=1;startArrow=none;endArrow=block;exitX=0.79;exitY=1;entryX=0.5;entryY=0.01;rounded=0;fontSize=12;startSize=8;endSize=8;" edge="1" parent="1" source="Z0ajDFj2CvX-1wqKtfaN-12" target="Z0ajDFj2CvX-1wqKtfaN-14">
          <mxGeometry relative="1" as="geometry">
            <Array as="points">
              <mxPoint x="554" y="1691" />
            </Array>
          </mxGeometry>
        </mxCell>
        <mxCell id="Z0ajDFj2CvX-1wqKtfaN-29" value="" style="curved=1;startArrow=none;endArrow=block;exitX=0.5;exitY=1.01;entryX=0;entryY=0.11;rounded=0;fontSize=12;startSize=8;endSize=8;" edge="1" parent="1" source="Z0ajDFj2CvX-1wqKtfaN-13" target="Z0ajDFj2CvX-1wqKtfaN-15">
          <mxGeometry relative="1" as="geometry">
            <Array as="points">
              <mxPoint x="382" y="1801" />
            </Array>
          </mxGeometry>
        </mxCell>
        <mxCell id="Z0ajDFj2CvX-1wqKtfaN-30" value="" style="curved=1;startArrow=none;endArrow=block;exitX=0.5;exitY=1.01;entryX=0.5;entryY=0.01;rounded=0;fontSize=12;startSize=8;endSize=8;" edge="1" parent="1" source="Z0ajDFj2CvX-1wqKtfaN-14" target="Z0ajDFj2CvX-1wqKtfaN-15">
          <mxGeometry relative="1" as="geometry">
            <Array as="points" />
          </mxGeometry>
        </mxCell>
        <mxCell id="Z0ajDFj2CvX-1wqKtfaN-31" value="" style="curved=1;startArrow=none;endArrow=block;exitX=0.94;exitY=0.01;entryX=1;entryY=0.59;rounded=0;fontSize=12;startSize=8;endSize=8;" edge="1" parent="1" source="Z0ajDFj2CvX-1wqKtfaN-15" target="Z0ajDFj2CvX-1wqKtfaN-6">
          <mxGeometry relative="1" as="geometry">
            <Array as="points">
              <mxPoint x="675" y="1801" />
              <mxPoint x="675" y="762" />
            </Array>
          </mxGeometry>
        </mxCell>
      </root>
    </mxGraphModel>
  </diagram>
  <diagram id="t3LN_8-SiEhD4W1mIZ2W" name="Page-8">
    <mxGraphModel dx="880" dy="518" grid="0" gridSize="10" guides="1" tooltips="1" connect="1" arrows="1" fold="1" page="0" pageScale="1" pageWidth="850" pageHeight="1100" math="0" shadow="0">
      <root>
        <mxCell id="0" />
        <mxCell id="1" parent="0" />
        <mxCell id="Wte-DNYQxjZ6OysAD6iD-10" value="Mulai" style="rounded=1;arcSize=40;strokeWidth=2" vertex="1" parent="1">
          <mxGeometry x="188" y="20" width="69" height="49" as="geometry" />
        </mxCell>
        <mxCell id="Wte-DNYQxjZ6OysAD6iD-11" value="Inisialisasi komunikasi Serial dan SPI" style="rounded=1;arcSize=40;strokeWidth=2" vertex="1" parent="1">
          <mxGeometry x="129" y="119" width="187" height="67" as="geometry" />
        </mxCell>
        <mxCell id="Wte-DNYQxjZ6OysAD6iD-12" value="Inisialisasi RFID reader" style="rounded=1;arcSize=40;strokeWidth=2" vertex="1" parent="1">
          <mxGeometry x="127" y="236" width="192" height="49" as="geometry" />
        </mxCell>
        <mxCell id="Wte-DNYQxjZ6OysAD6iD-13" value="Loop" style="rhombus;strokeWidth=2;whiteSpace=wrap;" vertex="1" parent="1">
          <mxGeometry x="181" y="335" width="83" height="83" as="geometry" />
        </mxCell>
        <mxCell id="Wte-DNYQxjZ6OysAD6iD-14" value="Apakah ada kartu baru?" style="rhombus;strokeWidth=2;whiteSpace=wrap;" vertex="1" parent="1">
          <mxGeometry x="52" y="491" width="218" height="218" as="geometry" />
        </mxCell>
        <mxCell id="Wte-DNYQxjZ6OysAD6iD-15" value="Apakah kartu dapat dibaca?" style="rhombus;strokeWidth=2;whiteSpace=wrap;" vertex="1" parent="1">
          <mxGeometry x="120" y="782" width="248" height="248" as="geometry" />
        </mxCell>
        <mxCell id="Wte-DNYQxjZ6OysAD6iD-16" value="Baca UID dari kartu dan tampilkan di Serial Monitor" style="rounded=1;arcSize=40;strokeWidth=2" vertex="1" parent="1">
          <mxGeometry x="132" y="1103" width="225" height="67" as="geometry" />
        </mxCell>
        <mxCell id="Wte-DNYQxjZ6OysAD6iD-17" value="Apakah UID diizinkan?" style="rhombus;strokeWidth=2;whiteSpace=wrap;" vertex="1" parent="1">
          <mxGeometry x="141" y="1220" width="206" height="206" as="geometry" />
        </mxCell>
        <mxCell id="Wte-DNYQxjZ6OysAD6iD-18" value="Akses diizinkan: Cetak Akses diizinkan &#xa;dan Selamat Datang" style="rounded=1;arcSize=40;strokeWidth=2" vertex="1" parent="1">
          <mxGeometry x="20" y="1499" width="214" height="98" as="geometry" />
        </mxCell>
        <mxCell id="Wte-DNYQxjZ6OysAD6iD-19" value="Akses ditolak: Cetak Akses ditolak &#xa;dan Coba Lagi" style="rounded=1;arcSize=40;strokeWidth=2" vertex="1" parent="1">
          <mxGeometry x="262" y="1508" width="226" height="90" as="geometry" />
        </mxCell>
        <mxCell id="Wte-DNYQxjZ6OysAD6iD-20" value="Tunggu kartu berikutnya" style="rounded=1;arcSize=40;strokeWidth=2" vertex="1" parent="1">
          <mxGeometry x="141" y="1634" width="205" height="49" as="geometry" />
        </mxCell>
        <mxCell id="Wte-DNYQxjZ6OysAD6iD-21" value="" style="curved=1;startArrow=none;endArrow=block;exitX=0.5;exitY=1;entryX=0.5;entryY=0;rounded=0;fontSize=12;startSize=8;endSize=8;" edge="1" parent="1" source="Wte-DNYQxjZ6OysAD6iD-10" target="Wte-DNYQxjZ6OysAD6iD-11">
          <mxGeometry relative="1" as="geometry">
            <Array as="points" />
          </mxGeometry>
        </mxCell>
        <mxCell id="Wte-DNYQxjZ6OysAD6iD-22" value="" style="curved=1;startArrow=none;endArrow=block;exitX=0.5;exitY=0.99;entryX=0.5;entryY=-0.01;rounded=0;fontSize=12;startSize=8;endSize=8;" edge="1" parent="1" source="Wte-DNYQxjZ6OysAD6iD-11" target="Wte-DNYQxjZ6OysAD6iD-12">
          <mxGeometry relative="1" as="geometry">
            <Array as="points" />
          </mxGeometry>
        </mxCell>
        <mxCell id="Wte-DNYQxjZ6OysAD6iD-23" value="" style="curved=1;startArrow=none;endArrow=block;exitX=0.5;exitY=0.99;entryX=0.5;entryY=0;rounded=0;fontSize=12;startSize=8;endSize=8;" edge="1" parent="1" source="Wte-DNYQxjZ6OysAD6iD-12" target="Wte-DNYQxjZ6OysAD6iD-13">
          <mxGeometry relative="1" as="geometry">
            <Array as="points" />
          </mxGeometry>
        </mxCell>
        <mxCell id="Wte-DNYQxjZ6OysAD6iD-24" value="" style="curved=1;startArrow=none;endArrow=block;exitX=0;exitY=0.97;entryX=0.43;entryY=0;rounded=0;fontSize=12;startSize=8;endSize=8;" edge="1" parent="1" source="Wte-DNYQxjZ6OysAD6iD-13" target="Wte-DNYQxjZ6OysAD6iD-14">
          <mxGeometry relative="1" as="geometry">
            <Array as="points">
              <mxPoint x="140" y="454" />
            </Array>
          </mxGeometry>
        </mxCell>
        <mxCell id="Wte-DNYQxjZ6OysAD6iD-25" value="Tidak" style="curved=1;startArrow=none;endArrow=block;exitX=0.71;exitY=0;entryX=0.5;entryY=1;rounded=0;fontSize=12;startSize=8;endSize=8;" edge="1" parent="1" source="Wte-DNYQxjZ6OysAD6iD-14" target="Wte-DNYQxjZ6OysAD6iD-13">
          <mxGeometry relative="1" as="geometry">
            <Array as="points">
              <mxPoint x="223" y="454" />
            </Array>
          </mxGeometry>
        </mxCell>
        <mxCell id="Wte-DNYQxjZ6OysAD6iD-26" value="Ya" style="curved=1;startArrow=none;endArrow=block;exitX=0.5;exitY=1;entryX=0.24;entryY=0;rounded=0;fontSize=12;startSize=8;endSize=8;" edge="1" parent="1" source="Wte-DNYQxjZ6OysAD6iD-14" target="Wte-DNYQxjZ6OysAD6iD-15">
          <mxGeometry relative="1" as="geometry">
            <Array as="points">
              <mxPoint x="161" y="746" />
            </Array>
          </mxGeometry>
        </mxCell>
        <mxCell id="Wte-DNYQxjZ6OysAD6iD-27" value="Tidak" style="curved=1;startArrow=none;endArrow=block;exitX=0.76;exitY=0;entryX=1.01;entryY=0.87;rounded=0;fontSize=12;startSize=8;endSize=8;" edge="1" parent="1" source="Wte-DNYQxjZ6OysAD6iD-15" target="Wte-DNYQxjZ6OysAD6iD-13">
          <mxGeometry relative="1" as="geometry">
            <Array as="points">
              <mxPoint x="327" y="746" />
              <mxPoint x="327" y="454" />
            </Array>
          </mxGeometry>
        </mxCell>
        <mxCell id="Wte-DNYQxjZ6OysAD6iD-28" value="Ya" style="curved=1;startArrow=none;endArrow=block;exitX=0.5;exitY=1;entryX=0.5;entryY=0.01;rounded=0;fontSize=12;startSize=8;endSize=8;" edge="1" parent="1" source="Wte-DNYQxjZ6OysAD6iD-15" target="Wte-DNYQxjZ6OysAD6iD-16">
          <mxGeometry relative="1" as="geometry">
            <Array as="points" />
          </mxGeometry>
        </mxCell>
        <mxCell id="Wte-DNYQxjZ6OysAD6iD-29" value="" style="curved=1;startArrow=none;endArrow=block;exitX=0.5;exitY=1;entryX=0.5;entryY=0;rounded=0;fontSize=12;startSize=8;endSize=8;" edge="1" parent="1" source="Wte-DNYQxjZ6OysAD6iD-16" target="Wte-DNYQxjZ6OysAD6iD-17">
          <mxGeometry relative="1" as="geometry">
            <Array as="points" />
          </mxGeometry>
        </mxCell>
        <mxCell id="Wte-DNYQxjZ6OysAD6iD-30" value="Ya" style="curved=1;startArrow=none;endArrow=block;exitX=0.04;exitY=1;entryX=0.5;entryY=0.01;rounded=0;fontSize=12;startSize=8;endSize=8;" edge="1" parent="1" source="Wte-DNYQxjZ6OysAD6iD-17" target="Wte-DNYQxjZ6OysAD6iD-18">
          <mxGeometry relative="1" as="geometry">
            <Array as="points">
              <mxPoint x="116" y="1463" />
            </Array>
          </mxGeometry>
        </mxCell>
        <mxCell id="Wte-DNYQxjZ6OysAD6iD-31" value="Tidak" style="curved=1;startArrow=none;endArrow=block;exitX=0.96;exitY=1;entryX=0.5;entryY=0;rounded=0;fontSize=12;startSize=8;endSize=8;" edge="1" parent="1" source="Wte-DNYQxjZ6OysAD6iD-17" target="Wte-DNYQxjZ6OysAD6iD-19">
          <mxGeometry relative="1" as="geometry">
            <Array as="points">
              <mxPoint x="372" y="1463" />
            </Array>
          </mxGeometry>
        </mxCell>
        <mxCell id="Wte-DNYQxjZ6OysAD6iD-32" value="" style="curved=1;startArrow=none;endArrow=block;exitX=0.5;exitY=1.01;entryX=0.19;entryY=-0.01;rounded=0;fontSize=12;startSize=8;endSize=8;" edge="1" parent="1" source="Wte-DNYQxjZ6OysAD6iD-18" target="Wte-DNYQxjZ6OysAD6iD-20">
          <mxGeometry relative="1" as="geometry">
            <Array as="points">
              <mxPoint x="116" y="1609" />
            </Array>
          </mxGeometry>
        </mxCell>
        <mxCell id="Wte-DNYQxjZ6OysAD6iD-33" value="" style="curved=1;startArrow=none;endArrow=block;exitX=0.5;exitY=1;entryX=0.81;entryY=-0.01;rounded=0;fontSize=12;startSize=8;endSize=8;" edge="1" parent="1" source="Wte-DNYQxjZ6OysAD6iD-19" target="Wte-DNYQxjZ6OysAD6iD-20">
          <mxGeometry relative="1" as="geometry">
            <Array as="points">
              <mxPoint x="372" y="1609" />
            </Array>
          </mxGeometry>
        </mxCell>
      </root>
    </mxGraphModel>
  </diagram>
  <diagram id="LLhgnCrewi0yXVcVpKyo" name="Page-9">
    <mxGraphModel dx="880" dy="518" grid="0" gridSize="10" guides="1" tooltips="1" connect="1" arrows="1" fold="1" page="0" pageScale="1" pageWidth="850" pageHeight="1100" math="0" shadow="0">
      <root>
        <mxCell id="0" />
        <mxCell id="1" parent="0" />
        <mxCell id="FFZH1hGPSYzEX2l0ODUL-1" value="Mulai" style="rounded=1;arcSize=40;strokeWidth=2" vertex="1" parent="1">
          <mxGeometry x="240" y="20" width="69" height="49" as="geometry" />
        </mxCell>
        <mxCell id="FFZH1hGPSYzEX2l0ODUL-2" value="Inisialisasi komunikasi Serial" style="rounded=1;arcSize=40;strokeWidth=2" vertex="1" parent="1">
          <mxGeometry x="181" y="119" width="187" height="67" as="geometry" />
        </mxCell>
        <mxCell id="FFZH1hGPSYzEX2l0ODUL-3" value="Mulai komunikasi SPI" style="rounded=1;arcSize=40;strokeWidth=2" vertex="1" parent="1">
          <mxGeometry x="185" y="236" width="179" height="49" as="geometry" />
        </mxCell>
        <mxCell id="FFZH1hGPSYzEX2l0ODUL-4" value="Inisialisasi modul RFID" style="rounded=1;arcSize=40;strokeWidth=2" vertex="1" parent="1">
          <mxGeometry x="180" y="335" width="188" height="49" as="geometry" />
        </mxCell>
        <mxCell id="FFZH1hGPSYzEX2l0ODUL-5" value="Cetak Scan a card..." style="rounded=1;arcSize=40;strokeWidth=2" vertex="1" parent="1">
          <mxGeometry x="186" y="434" width="176" height="49" as="geometry" />
        </mxCell>
        <mxCell id="FFZH1hGPSYzEX2l0ODUL-6" value="Loop" style="rhombus;strokeWidth=2;whiteSpace=wrap;" vertex="1" parent="1">
          <mxGeometry x="233" y="533" width="83" height="83" as="geometry" />
        </mxCell>
        <mxCell id="FFZH1hGPSYzEX2l0ODUL-7" value="Apakah ada kartu baru?" style="rhombus;strokeWidth=2;whiteSpace=wrap;" vertex="1" parent="1">
          <mxGeometry x="20" y="689" width="218" height="218" as="geometry" />
        </mxCell>
        <mxCell id="FFZH1hGPSYzEX2l0ODUL-8" value="Apakah kartu dapat dibaca?" style="rhombus;strokeWidth=2;whiteSpace=wrap;" vertex="1" parent="1">
          <mxGeometry x="88" y="980" width="248" height="248" as="geometry" />
        </mxCell>
        <mxCell id="FFZH1hGPSYzEX2l0ODUL-9" value="Tampilkan UID kartu di Serial Monitor" style="rounded=1;arcSize=40;strokeWidth=2" vertex="1" parent="1">
          <mxGeometry x="115" y="1301" width="194" height="67" as="geometry" />
        </mxCell>
        <mxCell id="FFZH1hGPSYzEX2l0ODUL-10" value="Hentikan komunikasi dengan kartu" style="rounded=1;arcSize=40;strokeWidth=2" vertex="1" parent="1">
          <mxGeometry x="203" y="1418" width="178" height="67" as="geometry" />
        </mxCell>
        <mxCell id="FFZH1hGPSYzEX2l0ODUL-11" value="" style="curved=1;startArrow=none;endArrow=block;exitX=0.5;exitY=1;entryX=0.5;entryY=0;rounded=0;fontSize=12;startSize=8;endSize=8;" edge="1" parent="1" source="FFZH1hGPSYzEX2l0ODUL-1" target="FFZH1hGPSYzEX2l0ODUL-2">
          <mxGeometry relative="1" as="geometry">
            <Array as="points" />
          </mxGeometry>
        </mxCell>
        <mxCell id="FFZH1hGPSYzEX2l0ODUL-12" value="" style="curved=1;startArrow=none;endArrow=block;exitX=0.5;exitY=0.99;entryX=0.5;entryY=-0.01;rounded=0;fontSize=12;startSize=8;endSize=8;" edge="1" parent="1" source="FFZH1hGPSYzEX2l0ODUL-2" target="FFZH1hGPSYzEX2l0ODUL-3">
          <mxGeometry relative="1" as="geometry">
            <Array as="points" />
          </mxGeometry>
        </mxCell>
        <mxCell id="FFZH1hGPSYzEX2l0ODUL-13" value="" style="curved=1;startArrow=none;endArrow=block;exitX=0.5;exitY=0.99;entryX=0.5;entryY=-0.01;rounded=0;fontSize=12;startSize=8;endSize=8;" edge="1" parent="1" source="FFZH1hGPSYzEX2l0ODUL-3" target="FFZH1hGPSYzEX2l0ODUL-4">
          <mxGeometry relative="1" as="geometry">
            <Array as="points" />
          </mxGeometry>
        </mxCell>
        <mxCell id="FFZH1hGPSYzEX2l0ODUL-14" value="" style="curved=1;startArrow=none;endArrow=block;exitX=0.5;exitY=0.99;entryX=0.5;entryY=-0.01;rounded=0;fontSize=12;startSize=8;endSize=8;" edge="1" parent="1" source="FFZH1hGPSYzEX2l0ODUL-4" target="FFZH1hGPSYzEX2l0ODUL-5">
          <mxGeometry relative="1" as="geometry">
            <Array as="points" />
          </mxGeometry>
        </mxCell>
        <mxCell id="FFZH1hGPSYzEX2l0ODUL-15" value="" style="curved=1;startArrow=none;endArrow=block;exitX=0.5;exitY=0.99;entryX=0.5;entryY=0;rounded=0;fontSize=12;startSize=8;endSize=8;" edge="1" parent="1" source="FFZH1hGPSYzEX2l0ODUL-5" target="FFZH1hGPSYzEX2l0ODUL-6">
          <mxGeometry relative="1" as="geometry">
            <Array as="points" />
          </mxGeometry>
        </mxCell>
        <mxCell id="FFZH1hGPSYzEX2l0ODUL-16" value="" style="curved=1;startArrow=none;endArrow=block;exitX=0;exitY=0.73;entryX=0.43;entryY=0;rounded=0;fontSize=12;startSize=8;endSize=8;" edge="1" parent="1" source="FFZH1hGPSYzEX2l0ODUL-6" target="FFZH1hGPSYzEX2l0ODUL-7">
          <mxGeometry relative="1" as="geometry">
            <Array as="points">
              <mxPoint x="108" y="652" />
            </Array>
          </mxGeometry>
        </mxCell>
        <mxCell id="FFZH1hGPSYzEX2l0ODUL-17" value="Tidak" style="curved=1;startArrow=none;endArrow=block;exitX=0.71;exitY=0;entryX=0;entryY=0.97;rounded=0;fontSize=12;startSize=8;endSize=8;" edge="1" parent="1" source="FFZH1hGPSYzEX2l0ODUL-7" target="FFZH1hGPSYzEX2l0ODUL-6">
          <mxGeometry relative="1" as="geometry">
            <Array as="points">
              <mxPoint x="191" y="652" />
            </Array>
          </mxGeometry>
        </mxCell>
        <mxCell id="FFZH1hGPSYzEX2l0ODUL-18" value="Ya" style="curved=1;startArrow=none;endArrow=block;exitX=0.5;exitY=1;entryX=0.24;entryY=0;rounded=0;fontSize=12;startSize=8;endSize=8;" edge="1" parent="1" source="FFZH1hGPSYzEX2l0ODUL-7" target="FFZH1hGPSYzEX2l0ODUL-8">
          <mxGeometry relative="1" as="geometry">
            <Array as="points">
              <mxPoint x="129" y="944" />
            </Array>
          </mxGeometry>
        </mxCell>
        <mxCell id="FFZH1hGPSYzEX2l0ODUL-19" value="Tidak" style="curved=1;startArrow=none;endArrow=block;exitX=0.76;exitY=0;entryX=0.63;entryY=1;rounded=0;fontSize=12;startSize=8;endSize=8;" edge="1" parent="1" source="FFZH1hGPSYzEX2l0ODUL-8" target="FFZH1hGPSYzEX2l0ODUL-6">
          <mxGeometry relative="1" as="geometry">
            <Array as="points">
              <mxPoint x="295" y="944" />
              <mxPoint x="295" y="652" />
            </Array>
          </mxGeometry>
        </mxCell>
        <mxCell id="FFZH1hGPSYzEX2l0ODUL-20" value="Ya" style="curved=1;startArrow=none;endArrow=block;exitX=0.5;exitY=1;entryX=0.5;entryY=0.01;rounded=0;fontSize=12;startSize=8;endSize=8;" edge="1" parent="1" source="FFZH1hGPSYzEX2l0ODUL-8" target="FFZH1hGPSYzEX2l0ODUL-9">
          <mxGeometry relative="1" as="geometry">
            <Array as="points" />
          </mxGeometry>
        </mxCell>
        <mxCell id="FFZH1hGPSYzEX2l0ODUL-21" value="" style="curved=1;startArrow=none;endArrow=block;exitX=0.5;exitY=1;entryX=0.24;entryY=0;rounded=0;fontSize=12;startSize=8;endSize=8;" edge="1" parent="1" source="FFZH1hGPSYzEX2l0ODUL-9" target="FFZH1hGPSYzEX2l0ODUL-10">
          <mxGeometry relative="1" as="geometry">
            <Array as="points">
              <mxPoint x="212" y="1393" />
            </Array>
          </mxGeometry>
        </mxCell>
        <mxCell id="FFZH1hGPSYzEX2l0ODUL-22" value="" style="curved=1;startArrow=none;endArrow=block;exitX=0.83;exitY=0;entryX=1;entryY=0.82;rounded=0;fontSize=12;startSize=8;endSize=8;" edge="1" parent="1" source="FFZH1hGPSYzEX2l0ODUL-10" target="FFZH1hGPSYzEX2l0ODUL-6">
          <mxGeometry relative="1" as="geometry">
            <Array as="points">
              <mxPoint x="396" y="1393" />
              <mxPoint x="396" y="652" />
            </Array>
          </mxGeometry>
        </mxCell>
      </root>
    </mxGraphModel>
  </diagram>
  <diagram id="BBqFwNYSAeC33lqAxFQA" name="Page-10">
    <mxGraphModel dx="880" dy="518" grid="0" gridSize="10" guides="1" tooltips="1" connect="1" arrows="1" fold="1" page="0" pageScale="1" pageWidth="850" pageHeight="1100" math="0" shadow="0">
      <root>
        <mxCell id="0" />
        <mxCell id="1" parent="0" />
        <mxCell id="mwNprNj4Kku_8YDD3zbD-1" value="Mulai" style="rounded=1;arcSize=40;strokeWidth=2" vertex="1" parent="1">
          <mxGeometry x="305" y="20" width="69" height="49" as="geometry" />
        </mxCell>
        <mxCell id="mwNprNj4Kku_8YDD3zbD-2" value="Inisialisasi komunikasi Serial" style="rounded=1;arcSize=40;strokeWidth=2" vertex="1" parent="1">
          <mxGeometry x="246" y="119" width="187" height="67" as="geometry" />
        </mxCell>
        <mxCell id="mwNprNj4Kku_8YDD3zbD-3" value="Inisialisasi sensor DHT" style="rounded=1;arcSize=40;strokeWidth=2" vertex="1" parent="1">
          <mxGeometry x="246" y="236" width="188" height="49" as="geometry" />
        </mxCell>
        <mxCell id="mwNprNj4Kku_8YDD3zbD-4" value="Inisialisasi LCD" style="rounded=1;arcSize=40;strokeWidth=2" vertex="1" parent="1">
          <mxGeometry x="272" y="335" width="135" height="49" as="geometry" />
        </mxCell>
        <mxCell id="mwNprNj4Kku_8YDD3zbD-5" value="Tampilkan Mengukur... di LCD" style="rounded=1;arcSize=40;strokeWidth=2" vertex="1" parent="1">
          <mxGeometry x="234" y="434" width="211" height="67" as="geometry" />
        </mxCell>
        <mxCell id="mwNprNj4Kku_8YDD3zbD-6" value="Loop" style="rhombus;strokeWidth=2;whiteSpace=wrap;" vertex="1" parent="1">
          <mxGeometry x="298" y="550" width="83" height="83" as="geometry" />
        </mxCell>
        <mxCell id="mwNprNj4Kku_8YDD3zbD-7" value="Baca kelembaban dan suhu" style="rounded=1;arcSize=40;strokeWidth=2" vertex="1" parent="1">
          <mxGeometry x="153" y="683" width="224" height="49" as="geometry" />
        </mxCell>
        <mxCell id="mwNprNj4Kku_8YDD3zbD-8" value="Apakah pembacaan berhasil?" style="rhombus;strokeWidth=2;whiteSpace=wrap;" vertex="1" parent="1">
          <mxGeometry x="162" y="782" width="206" height="206" as="geometry" />
        </mxCell>
        <mxCell id="mwNprNj4Kku_8YDD3zbD-9" value="Tampilkan Error membaca sensor DHT! &#xa;di LCD" style="rounded=1;arcSize=40;strokeWidth=2" vertex="1" parent="1">
          <mxGeometry x="20" y="1062" width="220" height="80" as="geometry" />
        </mxCell>
        <mxCell id="mwNprNj4Kku_8YDD3zbD-10" value="Tampilkan kelembaban dan suhu &#xa;di Serial Monitor" style="rounded=1;arcSize=40;strokeWidth=2" vertex="1" parent="1">
          <mxGeometry x="288" y="1062" width="240" height="73" as="geometry" />
        </mxCell>
        <mxCell id="mwNprNj4Kku_8YDD3zbD-11" value="Tampilkan kelembaban dan suhu di LCD" style="rounded=1;arcSize=40;strokeWidth=2" vertex="1" parent="1">
          <mxGeometry x="288" y="1178" width="226" height="67" as="geometry" />
        </mxCell>
        <mxCell id="mwNprNj4Kku_8YDD3zbD-12" value="Tunggu 2 detik" style="rounded=1;arcSize=40;strokeWidth=2" vertex="1" parent="1">
          <mxGeometry x="408" y="1295" width="136" height="49" as="geometry" />
        </mxCell>
        <mxCell id="mwNprNj4Kku_8YDD3zbD-13" value="" style="curved=1;startArrow=none;endArrow=block;exitX=0.5;exitY=1;entryX=0.5;entryY=0;rounded=0;fontSize=12;startSize=8;endSize=8;" edge="1" parent="1" source="mwNprNj4Kku_8YDD3zbD-1" target="mwNprNj4Kku_8YDD3zbD-2">
          <mxGeometry relative="1" as="geometry">
            <Array as="points" />
          </mxGeometry>
        </mxCell>
        <mxCell id="mwNprNj4Kku_8YDD3zbD-14" value="" style="curved=1;startArrow=none;endArrow=block;exitX=0.5;exitY=0.99;entryX=0.5;entryY=-0.01;rounded=0;fontSize=12;startSize=8;endSize=8;" edge="1" parent="1" source="mwNprNj4Kku_8YDD3zbD-2" target="mwNprNj4Kku_8YDD3zbD-3">
          <mxGeometry relative="1" as="geometry">
            <Array as="points" />
          </mxGeometry>
        </mxCell>
        <mxCell id="mwNprNj4Kku_8YDD3zbD-15" value="" style="curved=1;startArrow=none;endArrow=block;exitX=0.5;exitY=0.99;entryX=0.5;entryY=-0.01;rounded=0;fontSize=12;startSize=8;endSize=8;" edge="1" parent="1" source="mwNprNj4Kku_8YDD3zbD-3" target="mwNprNj4Kku_8YDD3zbD-4">
          <mxGeometry relative="1" as="geometry">
            <Array as="points" />
          </mxGeometry>
        </mxCell>
        <mxCell id="mwNprNj4Kku_8YDD3zbD-16" value="" style="curved=1;startArrow=none;endArrow=block;exitX=0.5;exitY=0.99;entryX=0.5;entryY=-0.01;rounded=0;fontSize=12;startSize=8;endSize=8;" edge="1" parent="1" source="mwNprNj4Kku_8YDD3zbD-4" target="mwNprNj4Kku_8YDD3zbD-5">
          <mxGeometry relative="1" as="geometry">
            <Array as="points" />
          </mxGeometry>
        </mxCell>
        <mxCell id="mwNprNj4Kku_8YDD3zbD-17" value="" style="curved=1;startArrow=none;endArrow=block;exitX=0.5;exitY=0.99;entryX=0.5;entryY=0;rounded=0;fontSize=12;startSize=8;endSize=8;" edge="1" parent="1" source="mwNprNj4Kku_8YDD3zbD-5" target="mwNprNj4Kku_8YDD3zbD-6">
          <mxGeometry relative="1" as="geometry">
            <Array as="points" />
          </mxGeometry>
        </mxCell>
        <mxCell id="mwNprNj4Kku_8YDD3zbD-18" value="" style="curved=1;startArrow=none;endArrow=block;exitX=0;exitY=0.96;entryX=0.5;entryY=0.01;rounded=0;fontSize=12;startSize=8;endSize=8;" edge="1" parent="1" source="mwNprNj4Kku_8YDD3zbD-6" target="mwNprNj4Kku_8YDD3zbD-7">
          <mxGeometry relative="1" as="geometry">
            <Array as="points">
              <mxPoint x="265" y="658" />
            </Array>
          </mxGeometry>
        </mxCell>
        <mxCell id="mwNprNj4Kku_8YDD3zbD-19" value="" style="curved=1;startArrow=none;endArrow=block;exitX=0.5;exitY=1.01;entryX=0.5;entryY=0;rounded=0;fontSize=12;startSize=8;endSize=8;" edge="1" parent="1" source="mwNprNj4Kku_8YDD3zbD-7" target="mwNprNj4Kku_8YDD3zbD-8">
          <mxGeometry relative="1" as="geometry">
            <Array as="points" />
          </mxGeometry>
        </mxCell>
        <mxCell id="mwNprNj4Kku_8YDD3zbD-20" value="Tidak" style="curved=1;startArrow=none;endArrow=block;exitX=0.01;exitY=1;entryX=0.5;entryY=0;rounded=0;fontSize=12;startSize=8;endSize=8;" edge="1" parent="1" source="mwNprNj4Kku_8YDD3zbD-8" target="mwNprNj4Kku_8YDD3zbD-9">
          <mxGeometry relative="1" as="geometry">
            <Array as="points">
              <mxPoint x="129" y="1025" />
            </Array>
          </mxGeometry>
        </mxCell>
        <mxCell id="mwNprNj4Kku_8YDD3zbD-21" value="Ya" style="curved=1;startArrow=none;endArrow=block;exitX=0.99;exitY=1;entryX=0.5;entryY=0;rounded=0;fontSize=12;startSize=8;endSize=8;" edge="1" parent="1" source="mwNprNj4Kku_8YDD3zbD-8" target="mwNprNj4Kku_8YDD3zbD-10">
          <mxGeometry relative="1" as="geometry">
            <Array as="points">
              <mxPoint x="402" y="1025" />
            </Array>
          </mxGeometry>
        </mxCell>
        <mxCell id="mwNprNj4Kku_8YDD3zbD-22" value="" style="curved=1;startArrow=none;endArrow=block;exitX=0.5;exitY=0.99;entryX=0.5;entryY=0.01;rounded=0;fontSize=12;startSize=8;endSize=8;" edge="1" parent="1" source="mwNprNj4Kku_8YDD3zbD-10" target="mwNprNj4Kku_8YDD3zbD-11">
          <mxGeometry relative="1" as="geometry">
            <Array as="points" />
          </mxGeometry>
        </mxCell>
        <mxCell id="mwNprNj4Kku_8YDD3zbD-23" value="" style="curved=1;startArrow=none;endArrow=block;exitX=0.5;exitY=1;entryX=0.23;entryY=0;rounded=0;fontSize=12;startSize=8;endSize=8;" edge="1" parent="1" source="mwNprNj4Kku_8YDD3zbD-11" target="mwNprNj4Kku_8YDD3zbD-12">
          <mxGeometry relative="1" as="geometry">
            <Array as="points">
              <mxPoint x="402" y="1270" />
            </Array>
          </mxGeometry>
        </mxCell>
        <mxCell id="mwNprNj4Kku_8YDD3zbD-24" value="" style="curved=1;startArrow=none;endArrow=block;exitX=0.77;exitY=0;entryX=1;entryY=0.66;rounded=0;fontSize=12;startSize=8;endSize=8;" edge="1" parent="1" source="mwNprNj4Kku_8YDD3zbD-12" target="mwNprNj4Kku_8YDD3zbD-6">
          <mxGeometry relative="1" as="geometry">
            <Array as="points">
              <mxPoint x="550" y="1270" />
              <mxPoint x="550" y="658" />
            </Array>
          </mxGeometry>
        </mxCell>
      </root>
    </mxGraphModel>
  </diagram>
  <diagram id="krTCIoff1hV7RiPIu78F" name="Page-12">
    <mxGraphModel dx="880" dy="518" grid="0" gridSize="10" guides="1" tooltips="1" connect="1" arrows="1" fold="1" page="0" pageScale="1" pageWidth="850" pageHeight="1100" math="0" shadow="0">
      <root>
        <mxCell id="0" />
        <mxCell id="1" parent="0" />
        <mxCell id="BvQX2QWZXp_0KsJJexDJ-1" value="Mulai" style="rounded=1;arcSize=40;strokeWidth=2" vertex="1" parent="1">
          <mxGeometry x="305" y="20" width="69" height="49" as="geometry" />
        </mxCell>
        <mxCell id="BvQX2QWZXp_0KsJJexDJ-2" value="Inisialisasi komunikasi Serial" style="rounded=1;arcSize=40;strokeWidth=2" vertex="1" parent="1">
          <mxGeometry x="246" y="119" width="187" height="67" as="geometry" />
        </mxCell>
        <mxCell id="BvQX2QWZXp_0KsJJexDJ-3" value="Inisialisasi sensor DHT" style="rounded=1;arcSize=40;strokeWidth=2" vertex="1" parent="1">
          <mxGeometry x="246" y="236" width="188" height="49" as="geometry" />
        </mxCell>
        <mxCell id="BvQX2QWZXp_0KsJJexDJ-4" value="Inisialisasi LCD" style="rounded=1;arcSize=40;strokeWidth=2" vertex="1" parent="1">
          <mxGeometry x="272" y="335" width="135" height="49" as="geometry" />
        </mxCell>
        <mxCell id="BvQX2QWZXp_0KsJJexDJ-5" value="Nyalakan backlight LCD" style="rounded=1;arcSize=40;strokeWidth=2" vertex="1" parent="1">
          <mxGeometry x="240" y="434" width="198" height="49" as="geometry" />
        </mxCell>
        <mxCell id="BvQX2QWZXp_0KsJJexDJ-6" value="Inisialisasi LED dan matikan LED awalnya" style="rounded=1;arcSize=40;strokeWidth=2" vertex="1" parent="1">
          <mxGeometry x="226" y="533" width="228" height="67" as="geometry" />
        </mxCell>
        <mxCell id="BvQX2QWZXp_0KsJJexDJ-7" value="Tampilkan Mengukur... di LCD" style="rounded=1;arcSize=40;strokeWidth=2" vertex="1" parent="1">
          <mxGeometry x="234" y="649" width="211" height="67" as="geometry" />
        </mxCell>
        <mxCell id="BvQX2QWZXp_0KsJJexDJ-8" value="Loop" style="rhombus;strokeWidth=2;whiteSpace=wrap;" vertex="1" parent="1">
          <mxGeometry x="298" y="766" width="83" height="83" as="geometry" />
        </mxCell>
        <mxCell id="BvQX2QWZXp_0KsJJexDJ-9" value="Baca kelembaban dan suhu dari sensor" style="rounded=1;arcSize=40;strokeWidth=2" vertex="1" parent="1">
          <mxGeometry x="153" y="899" width="224" height="67" as="geometry" />
        </mxCell>
        <mxCell id="BvQX2QWZXp_0KsJJexDJ-10" value="Apakah pembacaan berhasil?" style="rhombus;strokeWidth=2;whiteSpace=wrap;" vertex="1" parent="1">
          <mxGeometry x="162" y="1016" width="206" height="186" as="geometry" />
        </mxCell>
        <mxCell id="BvQX2QWZXp_0KsJJexDJ-11" value="Tampilkan Error membaca sensor DHT! &#xa;di LCD" style="rounded=1;arcSize=40;strokeWidth=2" vertex="1" parent="1">
          <mxGeometry x="20" y="1295" width="224" height="83" as="geometry" />
        </mxCell>
        <mxCell id="BvQX2QWZXp_0KsJJexDJ-12" value="Tampilkan kelembaban dan suhu &#xa;di Serial Monitor" style="rounded=1;arcSize=40;strokeWidth=2" vertex="1" parent="1">
          <mxGeometry x="288" y="1295" width="226" height="73" as="geometry" />
        </mxCell>
        <mxCell id="BvQX2QWZXp_0KsJJexDJ-13" value="Tampilkan kelembaban dan suhu di LCD" style="rounded=1;arcSize=40;strokeWidth=2" vertex="1" parent="1">
          <mxGeometry x="288" y="1412" width="226" height="67" as="geometry" />
        </mxCell>
        <mxCell id="BvQX2QWZXp_0KsJJexDJ-14" value="Apakah suhu &gt;= 25 derajat?" style="rhombus;strokeWidth=2;whiteSpace=wrap;" vertex="1" parent="1">
          <mxGeometry x="290" y="1528" width="223" height="223" as="geometry" />
        </mxCell>
        <mxCell id="BvQX2QWZXp_0KsJJexDJ-15" value="Nyalakan LED" style="rounded=1;arcSize=40;strokeWidth=2" vertex="1" parent="1">
          <mxGeometry x="252" y="1825" width="126" height="49" as="geometry" />
        </mxCell>
        <mxCell id="BvQX2QWZXp_0KsJJexDJ-16" value="Matikan LED" style="rounded=1;arcSize=40;strokeWidth=2" vertex="1" parent="1">
          <mxGeometry x="429" y="1825" width="118" height="49" as="geometry" />
        </mxCell>
        <mxCell id="BvQX2QWZXp_0KsJJexDJ-17" value="Tunggu 2 detik" style="rounded=1;arcSize=40;strokeWidth=2" vertex="1" parent="1">
          <mxGeometry x="408" y="1924" width="136" height="49" as="geometry" />
        </mxCell>
        <mxCell id="BvQX2QWZXp_0KsJJexDJ-18" value="" style="curved=1;startArrow=none;endArrow=block;exitX=0.5;exitY=1;entryX=0.5;entryY=0;rounded=0;fontSize=12;startSize=8;endSize=8;" edge="1" parent="1" source="BvQX2QWZXp_0KsJJexDJ-1" target="BvQX2QWZXp_0KsJJexDJ-2">
          <mxGeometry relative="1" as="geometry">
            <Array as="points" />
          </mxGeometry>
        </mxCell>
        <mxCell id="BvQX2QWZXp_0KsJJexDJ-19" value="" style="curved=1;startArrow=none;endArrow=block;exitX=0.5;exitY=0.99;entryX=0.5;entryY=-0.01;rounded=0;fontSize=12;startSize=8;endSize=8;" edge="1" parent="1" source="BvQX2QWZXp_0KsJJexDJ-2" target="BvQX2QWZXp_0KsJJexDJ-3">
          <mxGeometry relative="1" as="geometry">
            <Array as="points" />
          </mxGeometry>
        </mxCell>
        <mxCell id="BvQX2QWZXp_0KsJJexDJ-20" value="" style="curved=1;startArrow=none;endArrow=block;exitX=0.5;exitY=0.99;entryX=0.5;entryY=-0.01;rounded=0;fontSize=12;startSize=8;endSize=8;" edge="1" parent="1" source="BvQX2QWZXp_0KsJJexDJ-3" target="BvQX2QWZXp_0KsJJexDJ-4">
          <mxGeometry relative="1" as="geometry">
            <Array as="points" />
          </mxGeometry>
        </mxCell>
        <mxCell id="BvQX2QWZXp_0KsJJexDJ-21" value="" style="curved=1;startArrow=none;endArrow=block;exitX=0.5;exitY=0.99;entryX=0.5;entryY=-0.01;rounded=0;fontSize=12;startSize=8;endSize=8;" edge="1" parent="1" source="BvQX2QWZXp_0KsJJexDJ-4" target="BvQX2QWZXp_0KsJJexDJ-5">
          <mxGeometry relative="1" as="geometry">
            <Array as="points" />
          </mxGeometry>
        </mxCell>
        <mxCell id="BvQX2QWZXp_0KsJJexDJ-22" value="" style="curved=1;startArrow=none;endArrow=block;exitX=0.5;exitY=0.99;entryX=0.5;entryY=-0.01;rounded=0;fontSize=12;startSize=8;endSize=8;" edge="1" parent="1" source="BvQX2QWZXp_0KsJJexDJ-5" target="BvQX2QWZXp_0KsJJexDJ-6">
          <mxGeometry relative="1" as="geometry">
            <Array as="points" />
          </mxGeometry>
        </mxCell>
        <mxCell id="BvQX2QWZXp_0KsJJexDJ-23" value="" style="curved=1;startArrow=none;endArrow=block;exitX=0.5;exitY=0.99;entryX=0.5;entryY=0;rounded=0;fontSize=12;startSize=8;endSize=8;" edge="1" parent="1" source="BvQX2QWZXp_0KsJJexDJ-6" target="BvQX2QWZXp_0KsJJexDJ-7">
          <mxGeometry relative="1" as="geometry">
            <Array as="points" />
          </mxGeometry>
        </mxCell>
        <mxCell id="BvQX2QWZXp_0KsJJexDJ-24" value="" style="curved=1;startArrow=none;endArrow=block;exitX=0.5;exitY=1;entryX=0.5;entryY=0;rounded=0;fontSize=12;startSize=8;endSize=8;" edge="1" parent="1" source="BvQX2QWZXp_0KsJJexDJ-7" target="BvQX2QWZXp_0KsJJexDJ-8">
          <mxGeometry relative="1" as="geometry">
            <Array as="points" />
          </mxGeometry>
        </mxCell>
        <mxCell id="BvQX2QWZXp_0KsJJexDJ-25" value="" style="curved=1;startArrow=none;endArrow=block;exitX=0;exitY=0.95;entryX=0.5;entryY=0;rounded=0;fontSize=12;startSize=8;endSize=8;" edge="1" parent="1" source="BvQX2QWZXp_0KsJJexDJ-8" target="BvQX2QWZXp_0KsJJexDJ-9">
          <mxGeometry relative="1" as="geometry">
            <Array as="points">
              <mxPoint x="265" y="874" />
            </Array>
          </mxGeometry>
        </mxCell>
        <mxCell id="BvQX2QWZXp_0KsJJexDJ-26" value="" style="curved=1;startArrow=none;endArrow=block;exitX=0.5;exitY=1;entryX=0.5;entryY=0;rounded=0;fontSize=12;startSize=8;endSize=8;" edge="1" parent="1" source="BvQX2QWZXp_0KsJJexDJ-9" target="BvQX2QWZXp_0KsJJexDJ-10">
          <mxGeometry relative="1" as="geometry">
            <Array as="points" />
          </mxGeometry>
        </mxCell>
        <mxCell id="BvQX2QWZXp_0KsJJexDJ-27" value="Tidak" style="curved=1;startArrow=none;endArrow=block;exitX=0.01;exitY=1;entryX=0.5;entryY=0;rounded=0;fontSize=12;startSize=8;endSize=8;" edge="1" parent="1" source="BvQX2QWZXp_0KsJJexDJ-10" target="BvQX2QWZXp_0KsJJexDJ-11">
          <mxGeometry relative="1" as="geometry">
            <Array as="points">
              <mxPoint x="129" y="1259" />
            </Array>
          </mxGeometry>
        </mxCell>
        <mxCell id="BvQX2QWZXp_0KsJJexDJ-28" value="Ya" style="curved=1;startArrow=none;endArrow=block;exitX=0.99;exitY=1;entryX=0.5;entryY=0;rounded=0;fontSize=12;startSize=8;endSize=8;" edge="1" parent="1" source="BvQX2QWZXp_0KsJJexDJ-10" target="BvQX2QWZXp_0KsJJexDJ-12">
          <mxGeometry relative="1" as="geometry">
            <Array as="points">
              <mxPoint x="402" y="1259" />
            </Array>
          </mxGeometry>
        </mxCell>
        <mxCell id="BvQX2QWZXp_0KsJJexDJ-29" value="" style="curved=1;startArrow=none;endArrow=block;exitX=0.5;exitY=0.99;entryX=0.5;entryY=-0.01;rounded=0;fontSize=12;startSize=8;endSize=8;" edge="1" parent="1" source="BvQX2QWZXp_0KsJJexDJ-12" target="BvQX2QWZXp_0KsJJexDJ-13">
          <mxGeometry relative="1" as="geometry">
            <Array as="points" />
          </mxGeometry>
        </mxCell>
        <mxCell id="BvQX2QWZXp_0KsJJexDJ-30" value="" style="curved=1;startArrow=none;endArrow=block;exitX=0.5;exitY=0.99;entryX=0.5;entryY=0;rounded=0;fontSize=12;startSize=8;endSize=8;" edge="1" parent="1" source="BvQX2QWZXp_0KsJJexDJ-13" target="BvQX2QWZXp_0KsJJexDJ-14">
          <mxGeometry relative="1" as="geometry">
            <Array as="points" />
          </mxGeometry>
        </mxCell>
        <mxCell id="BvQX2QWZXp_0KsJJexDJ-31" value="Ya" style="curved=1;startArrow=none;endArrow=block;exitX=0.21;exitY=1;entryX=0.5;entryY=-0.01;rounded=0;fontSize=12;startSize=8;endSize=8;" edge="1" parent="1" source="BvQX2QWZXp_0KsJJexDJ-14" target="BvQX2QWZXp_0KsJJexDJ-15">
          <mxGeometry relative="1" as="geometry">
            <Array as="points">
              <mxPoint x="315" y="1788" />
            </Array>
          </mxGeometry>
        </mxCell>
        <mxCell id="BvQX2QWZXp_0KsJJexDJ-32" value="Tidak" style="curved=1;startArrow=none;endArrow=block;exitX=0.79;exitY=1;entryX=0.5;entryY=-0.01;rounded=0;fontSize=12;startSize=8;endSize=8;" edge="1" parent="1" source="BvQX2QWZXp_0KsJJexDJ-14" target="BvQX2QWZXp_0KsJJexDJ-16">
          <mxGeometry relative="1" as="geometry">
            <Array as="points">
              <mxPoint x="488" y="1788" />
            </Array>
          </mxGeometry>
        </mxCell>
        <mxCell id="BvQX2QWZXp_0KsJJexDJ-33" value="" style="curved=1;startArrow=none;endArrow=block;exitX=0.5;exitY=0.99;entryX=0;entryY=0.07;rounded=0;fontSize=12;startSize=8;endSize=8;" edge="1" parent="1" source="BvQX2QWZXp_0KsJJexDJ-15" target="BvQX2QWZXp_0KsJJexDJ-17">
          <mxGeometry relative="1" as="geometry">
            <Array as="points">
              <mxPoint x="315" y="1899" />
            </Array>
          </mxGeometry>
        </mxCell>
        <mxCell id="BvQX2QWZXp_0KsJJexDJ-34" value="" style="curved=1;startArrow=none;endArrow=block;exitX=0.5;exitY=0.99;entryX=0.54;entryY=-0.01;rounded=0;fontSize=12;startSize=8;endSize=8;" edge="1" parent="1" source="BvQX2QWZXp_0KsJJexDJ-16" target="BvQX2QWZXp_0KsJJexDJ-17">
          <mxGeometry relative="1" as="geometry">
            <Array as="points">
              <mxPoint x="488" y="1899" />
            </Array>
          </mxGeometry>
        </mxCell>
        <mxCell id="BvQX2QWZXp_0KsJJexDJ-35" value="" style="curved=1;startArrow=none;endArrow=block;exitX=0.98;exitY=-0.01;entryX=1;entryY=0.62;rounded=0;fontSize=12;startSize=8;endSize=8;" edge="1" parent="1" source="BvQX2QWZXp_0KsJJexDJ-17" target="BvQX2QWZXp_0KsJJexDJ-8">
          <mxGeometry relative="1" as="geometry">
            <Array as="points">
              <mxPoint x="609" y="1899" />
              <mxPoint x="609" y="874" />
            </Array>
          </mxGeometry>
        </mxCell>
      </root>
    </mxGraphModel>
  </diagram>
  <diagram id="z-SFTME4MkRiQJON8w-Y" name="Page-13">
    <mxGraphModel dx="880" dy="518" grid="0" gridSize="10" guides="1" tooltips="1" connect="1" arrows="1" fold="1" page="0" pageScale="1" pageWidth="850" pageHeight="1100" math="0" shadow="0">
      <root>
        <mxCell id="0" />
        <mxCell id="1" parent="0" />
        <mxCell id="C5TzkBe9I-Gxhq24bRpf-1" value="Mulai" style="rounded=1;arcSize=40;strokeWidth=2" vertex="1" parent="1">
          <mxGeometry x="625" y="20" width="69" height="49" as="geometry" />
        </mxCell>
        <mxCell id="C5TzkBe9I-Gxhq24bRpf-2" value="Inisialisasi komunikasi Serial, SPI, dan RFID" style="rounded=1;arcSize=40;strokeWidth=2" vertex="1" parent="1">
          <mxGeometry x="566" y="119" width="187" height="67" as="geometry" />
        </mxCell>
        <mxCell id="C5TzkBe9I-Gxhq24bRpf-3" value="Inisialisasi LCD dan LED" style="rounded=1;arcSize=40;strokeWidth=2" vertex="1" parent="1">
          <mxGeometry x="561" y="236" width="197" height="49" as="geometry" />
        </mxCell>
        <mxCell id="C5TzkBe9I-Gxhq24bRpf-4" value="Tampilkan Scan your card di LCD" style="rounded=1;arcSize=40;strokeWidth=2" vertex="1" parent="1">
          <mxGeometry x="552" y="335" width="214" height="67" as="geometry" />
        </mxCell>
        <mxCell id="C5TzkBe9I-Gxhq24bRpf-5" value="Loop" style="rhombus;strokeWidth=2;whiteSpace=wrap;" vertex="1" parent="1">
          <mxGeometry x="183" y="451" width="83" height="83" as="geometry" />
        </mxCell>
        <mxCell id="C5TzkBe9I-Gxhq24bRpf-6" value="Kembali ke awal loop" style="rounded=1;arcSize=40;strokeWidth=2" vertex="1" parent="1">
          <mxGeometry x="20" y="625" width="183" height="49" as="geometry" />
        </mxCell>
        <mxCell id="C5TzkBe9I-Gxhq24bRpf-7" value="Baca UID dari kartu" style="rounded=1;arcSize=40;strokeWidth=2" vertex="1" parent="1">
          <mxGeometry x="253" y="625" width="169" height="49" as="geometry" />
        </mxCell>
        <mxCell id="C5TzkBe9I-Gxhq24bRpf-8" value="Apakah UID cocok dengan UID yang diizinkan?" style="rhombus;strokeWidth=2;whiteSpace=wrap;" vertex="1" parent="1">
          <mxGeometry x="212" y="724" width="252" height="252" as="geometry" />
        </mxCell>
        <mxCell id="C5TzkBe9I-Gxhq24bRpf-9" value="Allow Access: Tampilkan Access: &#xa;ALLOW di LCD, Nyalakan LED" style="rounded=1;arcSize=40;strokeWidth=2" vertex="1" parent="1">
          <mxGeometry x="235" y="1132" width="204" height="84" as="geometry" />
        </mxCell>
        <mxCell id="C5TzkBe9I-Gxhq24bRpf-10" value="Tunggu 3 detik dan Matikan LED" style="rounded=1;arcSize=40;strokeWidth=2" vertex="1" parent="1">
          <mxGeometry x="304" y="1382" width="227" height="67" as="geometry" />
        </mxCell>
        <mxCell id="C5TzkBe9I-Gxhq24bRpf-11" value="Apakah UID cocok dengan UID yang ditolak?" style="rhombus;strokeWidth=2;whiteSpace=wrap;" vertex="1" parent="1">
          <mxGeometry x="533" y="1049" width="252" height="252" as="geometry" />
        </mxCell>
        <mxCell id="C5TzkBe9I-Gxhq24bRpf-12" value="Deny Access: Tampilkan Access: DENY di LCD, &#xa;Blink LED selama 3 detik" style="rounded=1;arcSize=40;strokeWidth=2" vertex="1" parent="1">
          <mxGeometry x="628" y="1373" width="265" height="120" as="geometry" />
        </mxCell>
        <mxCell id="C5TzkBe9I-Gxhq24bRpf-13" value="Deny Access: Tampilkan Access: DENY di LCD, &#xa;Blink LED selama 3 detik" style="rounded=1;arcSize=40;strokeWidth=2" vertex="1" parent="1">
          <mxGeometry x="942" y="1397" width="262" height="120" as="geometry" />
        </mxCell>
        <mxCell id="C5TzkBe9I-Gxhq24bRpf-14" value="" style="curved=1;startArrow=none;endArrow=block;exitX=0.49;exitY=1;entryX=0.5;entryY=0;rounded=0;fontSize=12;startSize=8;endSize=8;" edge="1" parent="1" source="C5TzkBe9I-Gxhq24bRpf-1" target="C5TzkBe9I-Gxhq24bRpf-2">
          <mxGeometry relative="1" as="geometry">
            <Array as="points" />
          </mxGeometry>
        </mxCell>
        <mxCell id="C5TzkBe9I-Gxhq24bRpf-15" value="" style="curved=1;startArrow=none;endArrow=block;exitX=0.5;exitY=0.99;entryX=0.5;entryY=-0.01;rounded=0;fontSize=12;startSize=8;endSize=8;" edge="1" parent="1" source="C5TzkBe9I-Gxhq24bRpf-2" target="C5TzkBe9I-Gxhq24bRpf-3">
          <mxGeometry relative="1" as="geometry">
            <Array as="points" />
          </mxGeometry>
        </mxCell>
        <mxCell id="C5TzkBe9I-Gxhq24bRpf-16" value="" style="curved=1;startArrow=none;endArrow=block;exitX=0.5;exitY=0.99;entryX=0.5;entryY=-0.01;rounded=0;fontSize=12;startSize=8;endSize=8;" edge="1" parent="1" source="C5TzkBe9I-Gxhq24bRpf-3" target="C5TzkBe9I-Gxhq24bRpf-4">
          <mxGeometry relative="1" as="geometry">
            <Array as="points" />
          </mxGeometry>
        </mxCell>
        <mxCell id="C5TzkBe9I-Gxhq24bRpf-17" value="" style="curved=1;startArrow=none;endArrow=block;exitX=0;exitY=0.7;entryX=0.5;entryY=0;rounded=0;fontSize=12;startSize=8;endSize=8;" edge="1" parent="1" source="C5TzkBe9I-Gxhq24bRpf-4" target="C5TzkBe9I-Gxhq24bRpf-5">
          <mxGeometry relative="1" as="geometry">
            <Array as="points">
              <mxPoint x="224" y="426" />
            </Array>
          </mxGeometry>
        </mxCell>
        <mxCell id="C5TzkBe9I-Gxhq24bRpf-18" value="Jika tidak ada kartu terdeteksi" style="curved=1;startArrow=none;endArrow=block;exitX=0;exitY=0.89;entryX=0.5;entryY=0;rounded=0;fontSize=12;startSize=8;endSize=8;" edge="1" parent="1" source="C5TzkBe9I-Gxhq24bRpf-5" target="C5TzkBe9I-Gxhq24bRpf-6">
          <mxGeometry relative="1" as="geometry">
            <Array as="points">
              <mxPoint x="111" y="580" />
            </Array>
          </mxGeometry>
        </mxCell>
        <mxCell id="C5TzkBe9I-Gxhq24bRpf-19" value="Jika kartu terbaca" style="curved=1;startArrow=none;endArrow=block;exitX=1;exitY=0.89;entryX=0.5;entryY=0;rounded=0;fontSize=12;startSize=8;endSize=8;" edge="1" parent="1" source="C5TzkBe9I-Gxhq24bRpf-5" target="C5TzkBe9I-Gxhq24bRpf-7">
          <mxGeometry relative="1" as="geometry">
            <Array as="points">
              <mxPoint x="337" y="580" />
            </Array>
          </mxGeometry>
        </mxCell>
        <mxCell id="C5TzkBe9I-Gxhq24bRpf-20" value="" style="curved=1;startArrow=none;endArrow=block;exitX=0.5;exitY=1;entryX=0.5;entryY=0;rounded=0;fontSize=12;startSize=8;endSize=8;" edge="1" parent="1" source="C5TzkBe9I-Gxhq24bRpf-7" target="C5TzkBe9I-Gxhq24bRpf-8">
          <mxGeometry relative="1" as="geometry">
            <Array as="points" />
          </mxGeometry>
        </mxCell>
        <mxCell id="C5TzkBe9I-Gxhq24bRpf-21" value="Ya" style="curved=1;startArrow=none;endArrow=block;exitX=0.5;exitY=1;entryX=0.5;entryY=0;rounded=0;fontSize=12;startSize=8;endSize=8;" edge="1" parent="1" source="C5TzkBe9I-Gxhq24bRpf-8" target="C5TzkBe9I-Gxhq24bRpf-9">
          <mxGeometry relative="1" as="geometry">
            <Array as="points" />
          </mxGeometry>
        </mxCell>
        <mxCell id="C5TzkBe9I-Gxhq24bRpf-22" value="" style="curved=1;startArrow=none;endArrow=block;exitX=0.5;exitY=1.01;entryX=0.35;entryY=0;rounded=0;fontSize=12;startSize=8;endSize=8;" edge="1" parent="1" source="C5TzkBe9I-Gxhq24bRpf-9" target="C5TzkBe9I-Gxhq24bRpf-10">
          <mxGeometry relative="1" as="geometry">
            <Array as="points">
              <mxPoint x="337" y="1337" />
            </Array>
          </mxGeometry>
        </mxCell>
        <mxCell id="C5TzkBe9I-Gxhq24bRpf-23" value="" style="curved=1;startArrow=none;endArrow=block;exitX=0.65;exitY=0;entryX=0.07;entryY=0.99;rounded=0;fontSize=12;startSize=8;endSize=8;" edge="1" parent="1" source="C5TzkBe9I-Gxhq24bRpf-10" target="C5TzkBe9I-Gxhq24bRpf-4">
          <mxGeometry relative="1" as="geometry">
            <Array as="points">
              <mxPoint x="498" y="1337" />
              <mxPoint x="498" y="426" />
            </Array>
          </mxGeometry>
        </mxCell>
        <mxCell id="C5TzkBe9I-Gxhq24bRpf-24" value="Tidak" style="curved=1;startArrow=none;endArrow=block;exitX=1;exitY=0.75;entryX=0.5;entryY=0;rounded=0;fontSize=12;startSize=8;endSize=8;" edge="1" parent="1" source="C5TzkBe9I-Gxhq24bRpf-8" target="C5TzkBe9I-Gxhq24bRpf-11">
          <mxGeometry relative="1" as="geometry">
            <Array as="points">
              <mxPoint x="659" y="1012" />
            </Array>
          </mxGeometry>
        </mxCell>
        <mxCell id="C5TzkBe9I-Gxhq24bRpf-25" value="Ya" style="curved=1;startArrow=none;endArrow=block;exitX=0.5;exitY=1;entryX=0.31;entryY=0;rounded=0;fontSize=12;startSize=8;endSize=8;" edge="1" parent="1" source="C5TzkBe9I-Gxhq24bRpf-11" target="C5TzkBe9I-Gxhq24bRpf-12">
          <mxGeometry relative="1" as="geometry">
            <Array as="points">
              <mxPoint x="659" y="1337" />
            </Array>
          </mxGeometry>
        </mxCell>
        <mxCell id="C5TzkBe9I-Gxhq24bRpf-26" value="" style="curved=1;startArrow=none;endArrow=block;exitX=0.78;exitY=0;entryX=1;entryY=0.97;rounded=0;fontSize=12;startSize=8;endSize=8;" edge="1" parent="1" source="C5TzkBe9I-Gxhq24bRpf-12" target="C5TzkBe9I-Gxhq24bRpf-4">
          <mxGeometry relative="1" as="geometry">
            <Array as="points">
              <mxPoint x="855" y="1337" />
              <mxPoint x="855" y="426" />
            </Array>
          </mxGeometry>
        </mxCell>
        <mxCell id="C5TzkBe9I-Gxhq24bRpf-27" value="Tidak" style="curved=1;startArrow=none;endArrow=block;exitX=1;exitY=0.84;entryX=0.22;entryY=0;rounded=0;fontSize=12;startSize=8;endSize=8;" edge="1" parent="1" source="C5TzkBe9I-Gxhq24bRpf-11" target="C5TzkBe9I-Gxhq24bRpf-13">
          <mxGeometry relative="1" as="geometry">
            <Array as="points">
              <mxPoint x="897" y="1337" />
            </Array>
          </mxGeometry>
        </mxCell>
        <mxCell id="C5TzkBe9I-Gxhq24bRpf-28" value="" style="curved=1;startArrow=none;endArrow=block;exitX=0.55;exitY=0;entryX=1;entryY=0.74;rounded=0;fontSize=12;startSize=8;endSize=8;" edge="1" parent="1" source="C5TzkBe9I-Gxhq24bRpf-13" target="C5TzkBe9I-Gxhq24bRpf-4">
          <mxGeometry relative="1" as="geometry">
            <Array as="points">
              <mxPoint x="1034" y="1337" />
              <mxPoint x="1034" y="426" />
            </Array>
          </mxGeometry>
        </mxCell>
      </root>
    </mxGraphModel>
  </diagram>
  <diagram id="lg1PIFtlVHrsOIhVVwUR" name="Page-14">
    <mxGraphModel dx="880" dy="518" grid="0" gridSize="10" guides="1" tooltips="1" connect="1" arrows="1" fold="1" page="0" pageScale="1" pageWidth="850" pageHeight="1100" math="0" shadow="0">
      <root>
        <mxCell id="0" />
        <mxCell id="1" parent="0" />
        <mxCell id="DcAXCDFDpUTYfhAA14c9-1" value="Mulai" style="rounded=1;arcSize=40;strokeWidth=2" vertex="1" parent="1">
          <mxGeometry x="625" y="20" width="69" height="49" as="geometry" />
        </mxCell>
        <mxCell id="DcAXCDFDpUTYfhAA14c9-2" value="Inisialisasi Serial, SPI, dan RFID" style="rounded=1;arcSize=40;strokeWidth=2" vertex="1" parent="1">
          <mxGeometry x="551" y="119" width="216" height="67" as="geometry" />
        </mxCell>
        <mxCell id="DcAXCDFDpUTYfhAA14c9-3" value="Inisialisasi LCD dan LED" style="rounded=1;arcSize=40;strokeWidth=2" vertex="1" parent="1">
          <mxGeometry x="561" y="236" width="197" height="49" as="geometry" />
        </mxCell>
        <mxCell id="DcAXCDFDpUTYfhAA14c9-4" value="Tampilkan Scan your card di LCD" style="rounded=1;arcSize=40;strokeWidth=2" vertex="1" parent="1">
          <mxGeometry x="552" y="335" width="214" height="67" as="geometry" />
        </mxCell>
        <mxCell id="DcAXCDFDpUTYfhAA14c9-5" value="Loop" style="rhombus;strokeWidth=2;whiteSpace=wrap;" vertex="1" parent="1">
          <mxGeometry x="183" y="451" width="83" height="83" as="geometry" />
        </mxCell>
        <mxCell id="DcAXCDFDpUTYfhAA14c9-6" value="Kembali ke awal loop" style="rounded=1;arcSize=40;strokeWidth=2" vertex="1" parent="1">
          <mxGeometry x="20" y="625" width="183" height="49" as="geometry" />
        </mxCell>
        <mxCell id="DcAXCDFDpUTYfhAA14c9-7" value="Baca UID dari kartu" style="rounded=1;arcSize=40;strokeWidth=2" vertex="1" parent="1">
          <mxGeometry x="253" y="625" width="169" height="49" as="geometry" />
        </mxCell>
        <mxCell id="DcAXCDFDpUTYfhAA14c9-8" value="Tampilkan UID di Serial Monitor" style="rounded=1;arcSize=40;strokeWidth=2" vertex="1" parent="1">
          <mxGeometry x="239" y="724" width="197" height="67" as="geometry" />
        </mxCell>
        <mxCell id="DcAXCDFDpUTYfhAA14c9-9" value="Apakah UID cocok dengan UID yang diizinkan?" style="rhombus;strokeWidth=2;whiteSpace=wrap;" vertex="1" parent="1">
          <mxGeometry x="212" y="841" width="252" height="252" as="geometry" />
        </mxCell>
        <mxCell id="DcAXCDFDpUTYfhAA14c9-10" value="Allow Access: Tampilkan Access: &#xa;ALLOW di LCD, Nyalakan LED" style="rounded=1;arcSize=40;strokeWidth=2" vertex="1" parent="1">
          <mxGeometry x="235" y="1249" width="204" height="84" as="geometry" />
        </mxCell>
        <mxCell id="DcAXCDFDpUTYfhAA14c9-11" value="Tunggu 3 detik dan Matikan LED" style="rounded=1;arcSize=40;strokeWidth=2" vertex="1" parent="1">
          <mxGeometry x="304" y="1499" width="227" height="67" as="geometry" />
        </mxCell>
        <mxCell id="DcAXCDFDpUTYfhAA14c9-12" value="Apakah UID cocok dengan UID yang ditolak?" style="rhombus;strokeWidth=2;whiteSpace=wrap;" vertex="1" parent="1">
          <mxGeometry x="533" y="1165" width="252" height="252" as="geometry" />
        </mxCell>
        <mxCell id="DcAXCDFDpUTYfhAA14c9-13" value="Deny Access: Tampilkan Access: &#xa;DENY di LCD, Blink LED selama 3 detik" style="rounded=1;arcSize=40;strokeWidth=2" vertex="1" parent="1">
          <mxGeometry x="628" y="1490" width="223" height="84" as="geometry" />
        </mxCell>
        <mxCell id="DcAXCDFDpUTYfhAA14c9-14" value="Deny Access: Tampilkan Access: &#xa;DENY di LCD, Blink LED selama 3 detik" style="rounded=1;arcSize=40;strokeWidth=2" vertex="1" parent="1">
          <mxGeometry x="901" y="1490" width="223" height="84" as="geometry" />
        </mxCell>
        <mxCell id="DcAXCDFDpUTYfhAA14c9-15" value="" style="curved=1;startArrow=none;endArrow=block;exitX=0.49;exitY=1;entryX=0.5;entryY=0;rounded=0;fontSize=12;startSize=8;endSize=8;" edge="1" parent="1" source="DcAXCDFDpUTYfhAA14c9-1" target="DcAXCDFDpUTYfhAA14c9-2">
          <mxGeometry relative="1" as="geometry">
            <Array as="points" />
          </mxGeometry>
        </mxCell>
        <mxCell id="DcAXCDFDpUTYfhAA14c9-16" value="" style="curved=1;startArrow=none;endArrow=block;exitX=0.5;exitY=0.99;entryX=0.5;entryY=-0.01;rounded=0;fontSize=12;startSize=8;endSize=8;" edge="1" parent="1" source="DcAXCDFDpUTYfhAA14c9-2" target="DcAXCDFDpUTYfhAA14c9-3">
          <mxGeometry relative="1" as="geometry">
            <Array as="points" />
          </mxGeometry>
        </mxCell>
        <mxCell id="DcAXCDFDpUTYfhAA14c9-17" value="" style="curved=1;startArrow=none;endArrow=block;exitX=0.5;exitY=0.99;entryX=0.5;entryY=-0.01;rounded=0;fontSize=12;startSize=8;endSize=8;" edge="1" parent="1" source="DcAXCDFDpUTYfhAA14c9-3" target="DcAXCDFDpUTYfhAA14c9-4">
          <mxGeometry relative="1" as="geometry">
            <Array as="points" />
          </mxGeometry>
        </mxCell>
        <mxCell id="DcAXCDFDpUTYfhAA14c9-18" value="" style="curved=1;startArrow=none;endArrow=block;exitX=0;exitY=0.7;entryX=0.5;entryY=0;rounded=0;fontSize=12;startSize=8;endSize=8;" edge="1" parent="1" source="DcAXCDFDpUTYfhAA14c9-4" target="DcAXCDFDpUTYfhAA14c9-5">
          <mxGeometry relative="1" as="geometry">
            <Array as="points">
              <mxPoint x="224" y="426" />
            </Array>
          </mxGeometry>
        </mxCell>
        <mxCell id="DcAXCDFDpUTYfhAA14c9-19" value="Jika tidak ada kartu terdeteksi" style="curved=1;startArrow=none;endArrow=block;exitX=0;exitY=0.89;entryX=0.5;entryY=0;rounded=0;fontSize=12;startSize=8;endSize=8;" edge="1" parent="1" source="DcAXCDFDpUTYfhAA14c9-5" target="DcAXCDFDpUTYfhAA14c9-6">
          <mxGeometry relative="1" as="geometry">
            <Array as="points">
              <mxPoint x="111" y="580" />
            </Array>
          </mxGeometry>
        </mxCell>
        <mxCell id="DcAXCDFDpUTYfhAA14c9-20" value="Jika kartu terbaca" style="curved=1;startArrow=none;endArrow=block;exitX=1;exitY=0.89;entryX=0.5;entryY=0;rounded=0;fontSize=12;startSize=8;endSize=8;" edge="1" parent="1" source="DcAXCDFDpUTYfhAA14c9-5" target="DcAXCDFDpUTYfhAA14c9-7">
          <mxGeometry relative="1" as="geometry">
            <Array as="points">
              <mxPoint x="337" y="580" />
            </Array>
          </mxGeometry>
        </mxCell>
        <mxCell id="DcAXCDFDpUTYfhAA14c9-21" value="" style="curved=1;startArrow=none;endArrow=block;exitX=0.5;exitY=1;entryX=0.5;entryY=0;rounded=0;fontSize=12;startSize=8;endSize=8;" edge="1" parent="1" source="DcAXCDFDpUTYfhAA14c9-7" target="DcAXCDFDpUTYfhAA14c9-8">
          <mxGeometry relative="1" as="geometry">
            <Array as="points" />
          </mxGeometry>
        </mxCell>
        <mxCell id="DcAXCDFDpUTYfhAA14c9-22" value="" style="curved=1;startArrow=none;endArrow=block;exitX=0.5;exitY=1;entryX=0.5;entryY=0;rounded=0;fontSize=12;startSize=8;endSize=8;" edge="1" parent="1" source="DcAXCDFDpUTYfhAA14c9-8" target="DcAXCDFDpUTYfhAA14c9-9">
          <mxGeometry relative="1" as="geometry">
            <Array as="points" />
          </mxGeometry>
        </mxCell>
        <mxCell id="DcAXCDFDpUTYfhAA14c9-23" value="Ya" style="curved=1;startArrow=none;endArrow=block;exitX=0.5;exitY=1;entryX=0.5;entryY=0;rounded=0;fontSize=12;startSize=8;endSize=8;" edge="1" parent="1" source="DcAXCDFDpUTYfhAA14c9-9" target="DcAXCDFDpUTYfhAA14c9-10">
          <mxGeometry relative="1" as="geometry">
            <Array as="points" />
          </mxGeometry>
        </mxCell>
        <mxCell id="DcAXCDFDpUTYfhAA14c9-24" value="" style="curved=1;startArrow=none;endArrow=block;exitX=0.5;exitY=1;entryX=0.35;entryY=0;rounded=0;fontSize=12;startSize=8;endSize=8;" edge="1" parent="1" source="DcAXCDFDpUTYfhAA14c9-10" target="DcAXCDFDpUTYfhAA14c9-11">
          <mxGeometry relative="1" as="geometry">
            <Array as="points">
              <mxPoint x="337" y="1453" />
            </Array>
          </mxGeometry>
        </mxCell>
        <mxCell id="DcAXCDFDpUTYfhAA14c9-25" value="" style="curved=1;startArrow=none;endArrow=block;exitX=0.65;exitY=0;entryX=0.07;entryY=0.99;rounded=0;fontSize=12;startSize=8;endSize=8;" edge="1" parent="1" source="DcAXCDFDpUTYfhAA14c9-11" target="DcAXCDFDpUTYfhAA14c9-4">
          <mxGeometry relative="1" as="geometry">
            <Array as="points">
              <mxPoint x="498" y="1453" />
              <mxPoint x="498" y="426" />
            </Array>
          </mxGeometry>
        </mxCell>
        <mxCell id="DcAXCDFDpUTYfhAA14c9-26" value="Tidak" style="curved=1;startArrow=none;endArrow=block;exitX=1;exitY=0.75;entryX=0.5;entryY=0;rounded=0;fontSize=12;startSize=8;endSize=8;" edge="1" parent="1" source="DcAXCDFDpUTYfhAA14c9-9" target="DcAXCDFDpUTYfhAA14c9-12">
          <mxGeometry relative="1" as="geometry">
            <Array as="points">
              <mxPoint x="659" y="1129" />
            </Array>
          </mxGeometry>
        </mxCell>
        <mxCell id="DcAXCDFDpUTYfhAA14c9-27" value="Ya" style="curved=1;startArrow=none;endArrow=block;exitX=0.5;exitY=1;entryX=0.31;entryY=0;rounded=0;fontSize=12;startSize=8;endSize=8;" edge="1" parent="1" source="DcAXCDFDpUTYfhAA14c9-12" target="DcAXCDFDpUTYfhAA14c9-13">
          <mxGeometry relative="1" as="geometry">
            <Array as="points">
              <mxPoint x="659" y="1453" />
            </Array>
          </mxGeometry>
        </mxCell>
        <mxCell id="DcAXCDFDpUTYfhAA14c9-28" value="" style="curved=1;startArrow=none;endArrow=block;exitX=0.78;exitY=0;entryX=1;entryY=0.97;rounded=0;fontSize=12;startSize=8;endSize=8;" edge="1" parent="1" source="DcAXCDFDpUTYfhAA14c9-13" target="DcAXCDFDpUTYfhAA14c9-4">
          <mxGeometry relative="1" as="geometry">
            <Array as="points">
              <mxPoint x="855" y="1453" />
              <mxPoint x="855" y="426" />
            </Array>
          </mxGeometry>
        </mxCell>
        <mxCell id="DcAXCDFDpUTYfhAA14c9-29" value="Tidak" style="curved=1;startArrow=none;endArrow=block;exitX=1;exitY=0.84;entryX=0.22;entryY=0;rounded=0;fontSize=12;startSize=8;endSize=8;" edge="1" parent="1" source="DcAXCDFDpUTYfhAA14c9-12" target="DcAXCDFDpUTYfhAA14c9-14">
          <mxGeometry relative="1" as="geometry">
            <Array as="points">
              <mxPoint x="897" y="1453" />
            </Array>
          </mxGeometry>
        </mxCell>
        <mxCell id="DcAXCDFDpUTYfhAA14c9-30" value="" style="curved=1;startArrow=none;endArrow=block;exitX=0.55;exitY=0;entryX=1;entryY=0.74;rounded=0;fontSize=12;startSize=8;endSize=8;" edge="1" parent="1" source="DcAXCDFDpUTYfhAA14c9-14" target="DcAXCDFDpUTYfhAA14c9-4">
          <mxGeometry relative="1" as="geometry">
            <Array as="points">
              <mxPoint x="1034" y="1453" />
              <mxPoint x="1034" y="426" />
            </Array>
          </mxGeometry>
        </mxCell>
      </root>
    </mxGraphModel>
  </diagram>
  <diagram id="0ByARN5YtY8OpzvI_RbW" name="Page-15">
    <mxGraphModel dx="880" dy="468" grid="1" gridSize="10" guides="1" tooltips="1" connect="1" arrows="1" fold="1" page="1" pageScale="1" pageWidth="850" pageHeight="1100" math="0" shadow="0">
      <root>
        <mxCell id="0" />
        <mxCell id="1" parent="0" />
        <mxCell id="DYXAvwkyTc3LsryRMX8y-1" value="Mulai Program" style="whiteSpace=wrap;strokeWidth=2;" vertex="1" parent="1">
          <mxGeometry x="139" y="20" width="163" height="49" as="geometry" />
        </mxCell>
        <mxCell id="DYXAvwkyTc3LsryRMX8y-2" value="Inisialisasi Serial" style="whiteSpace=wrap;strokeWidth=2;" vertex="1" parent="1">
          <mxGeometry x="132" y="119" width="178" height="49" as="geometry" />
        </mxCell>
        <mxCell id="DYXAvwkyTc3LsryRMX8y-3" value="Hubungkan ke WiFi" style="whiteSpace=wrap;strokeWidth=2;" vertex="1" parent="1">
          <mxGeometry x="123" y="218" width="196" height="49" as="geometry" />
        </mxCell>
        <mxCell id="DYXAvwkyTc3LsryRMX8y-4" value="WiFi Terhubung?" style="rhombus;strokeWidth=2;whiteSpace=wrap;" vertex="1" parent="1">
          <mxGeometry x="138" y="317" width="166" height="166" as="geometry" />
        </mxCell>
        <mxCell id="DYXAvwkyTc3LsryRMX8y-5" value="Menunggu Koneksi" style="whiteSpace=wrap;strokeWidth=2;" vertex="1" parent="1">
          <mxGeometry x="20" y="556" width="191" height="49" as="geometry" />
        </mxCell>
        <mxCell id="DYXAvwkyTc3LsryRMX8y-6" value="Mulai Server HTTP" style="whiteSpace=wrap;strokeWidth=2;" vertex="1" parent="1">
          <mxGeometry x="261" y="556" width="192" height="49" as="geometry" />
        </mxCell>
        <mxCell id="DYXAvwkyTc3LsryRMX8y-7" value="Loop Utama" style="whiteSpace=wrap;strokeWidth=2;" vertex="1" parent="1">
          <mxGeometry x="284" y="655" width="146" height="49" as="geometry" />
        </mxCell>
        <mxCell id="DYXAvwkyTc3LsryRMX8y-8" value="Ada Klien?" style="rhombus;strokeWidth=2;whiteSpace=wrap;" vertex="1" parent="1">
          <mxGeometry x="197" y="777" width="124" height="124" as="geometry" />
        </mxCell>
        <mxCell id="DYXAvwkyTc3LsryRMX8y-9" value="Kirim Halaman HTML" style="whiteSpace=wrap;strokeWidth=2;" vertex="1" parent="1">
          <mxGeometry x="154" y="973" width="210" height="49" as="geometry" />
        </mxCell>
        <mxCell id="DYXAvwkyTc3LsryRMX8y-10" value="Putuskan Koneksi Klien" style="whiteSpace=wrap;strokeWidth=2;" vertex="1" parent="1">
          <mxGeometry x="266" y="1072" width="224" height="49" as="geometry" />
        </mxCell>
        <mxCell id="DYXAvwkyTc3LsryRMX8y-11" value="" style="curved=1;startArrow=none;endArrow=block;exitX=0.5;exitY=1;entryX=0.5;entryY=0;rounded=0;" edge="1" parent="1" source="DYXAvwkyTc3LsryRMX8y-1" target="DYXAvwkyTc3LsryRMX8y-2">
          <mxGeometry relative="1" as="geometry">
            <Array as="points" />
          </mxGeometry>
        </mxCell>
        <mxCell id="DYXAvwkyTc3LsryRMX8y-12" value="" style="curved=1;startArrow=none;endArrow=block;exitX=0.5;exitY=1;entryX=0.5;entryY=0;rounded=0;" edge="1" parent="1" source="DYXAvwkyTc3LsryRMX8y-2" target="DYXAvwkyTc3LsryRMX8y-3">
          <mxGeometry relative="1" as="geometry">
            <Array as="points" />
          </mxGeometry>
        </mxCell>
        <mxCell id="DYXAvwkyTc3LsryRMX8y-13" value="" style="curved=1;startArrow=none;endArrow=block;exitX=0.5;exitY=1;entryX=0.5;entryY=0;rounded=0;" edge="1" parent="1" source="DYXAvwkyTc3LsryRMX8y-3" target="DYXAvwkyTc3LsryRMX8y-4">
          <mxGeometry relative="1" as="geometry">
            <Array as="points" />
          </mxGeometry>
        </mxCell>
        <mxCell id="DYXAvwkyTc3LsryRMX8y-14" value="Tidak" style="curved=1;startArrow=none;endArrow=block;exitX=0.06;exitY=1;entryX=0.5;entryY=-0.01;rounded=0;" edge="1" parent="1" source="DYXAvwkyTc3LsryRMX8y-4" target="DYXAvwkyTc3LsryRMX8y-5">
          <mxGeometry relative="1" as="geometry">
            <Array as="points">
              <mxPoint x="115" y="519" />
            </Array>
          </mxGeometry>
        </mxCell>
        <mxCell id="DYXAvwkyTc3LsryRMX8y-15" value="" style="curved=1;startArrow=none;endArrow=block;exitX=0.77;exitY=-0.01;entryX=0.59;entryY=1;rounded=0;" edge="1" parent="1" source="DYXAvwkyTc3LsryRMX8y-5" target="DYXAvwkyTc3LsryRMX8y-4">
          <mxGeometry relative="1" as="geometry">
            <Array as="points">
              <mxPoint x="242" y="519" />
            </Array>
          </mxGeometry>
        </mxCell>
        <mxCell id="DYXAvwkyTc3LsryRMX8y-16" value="Ya" style="curved=1;startArrow=none;endArrow=block;exitX=1;exitY=0.94;entryX=0.5;entryY=-0.01;rounded=0;" edge="1" parent="1" source="DYXAvwkyTc3LsryRMX8y-4" target="DYXAvwkyTc3LsryRMX8y-6">
          <mxGeometry relative="1" as="geometry">
            <Array as="points">
              <mxPoint x="357" y="519" />
            </Array>
          </mxGeometry>
        </mxCell>
        <mxCell id="DYXAvwkyTc3LsryRMX8y-17" value="" style="curved=1;startArrow=none;endArrow=block;exitX=0.5;exitY=0.99;entryX=0.5;entryY=-0.01;rounded=0;" edge="1" parent="1" source="DYXAvwkyTc3LsryRMX8y-6" target="DYXAvwkyTc3LsryRMX8y-7">
          <mxGeometry relative="1" as="geometry">
            <Array as="points" />
          </mxGeometry>
        </mxCell>
        <mxCell id="DYXAvwkyTc3LsryRMX8y-18" value="" style="curved=1;startArrow=none;endArrow=block;exitX=0.17;exitY=0.99;entryX=0.39;entryY=0;rounded=0;" edge="1" parent="1" source="DYXAvwkyTc3LsryRMX8y-7" target="DYXAvwkyTc3LsryRMX8y-8">
          <mxGeometry relative="1" as="geometry">
            <Array as="points">
              <mxPoint x="238" y="740" />
            </Array>
          </mxGeometry>
        </mxCell>
        <mxCell id="DYXAvwkyTc3LsryRMX8y-19" value="Tidak" style="curved=1;startArrow=none;endArrow=block;exitX=0.75;exitY=0;entryX=0.36;entryY=0.99;rounded=0;" edge="1" parent="1" source="DYXAvwkyTc3LsryRMX8y-8" target="DYXAvwkyTc3LsryRMX8y-7">
          <mxGeometry relative="1" as="geometry">
            <Array as="points">
              <mxPoint x="308" y="740" />
            </Array>
          </mxGeometry>
        </mxCell>
        <mxCell id="DYXAvwkyTc3LsryRMX8y-20" value="Ya" style="curved=1;startArrow=none;endArrow=block;exitX=0.5;exitY=0.99;entryX=0.5;entryY=0;rounded=0;" edge="1" parent="1" source="DYXAvwkyTc3LsryRMX8y-8" target="DYXAvwkyTc3LsryRMX8y-9">
          <mxGeometry relative="1" as="geometry">
            <Array as="points" />
          </mxGeometry>
        </mxCell>
        <mxCell id="DYXAvwkyTc3LsryRMX8y-21" value="" style="curved=1;startArrow=none;endArrow=block;exitX=0.5;exitY=1;entryX=0.24;entryY=0;rounded=0;" edge="1" parent="1" source="DYXAvwkyTc3LsryRMX8y-9" target="DYXAvwkyTc3LsryRMX8y-10">
          <mxGeometry relative="1" as="geometry">
            <Array as="points">
              <mxPoint x="259" y="1047" />
            </Array>
          </mxGeometry>
        </mxCell>
        <mxCell id="DYXAvwkyTc3LsryRMX8y-22" value="" style="curved=1;startArrow=none;endArrow=block;exitX=0.55;exitY=0;entryX=0.61;entryY=0.99;rounded=0;" edge="1" parent="1" source="DYXAvwkyTc3LsryRMX8y-10" target="DYXAvwkyTc3LsryRMX8y-7">
          <mxGeometry relative="1" as="geometry">
            <Array as="points">
              <mxPoint x="399" y="1047" />
              <mxPoint x="399" y="740" />
            </Array>
          </mxGeometry>
        </mxCell>
      </root>
    </mxGraphModel>
  </diagram>
  <diagram id="vht52ENI5hP9emdtnEzf" name="Page-16">
    <mxGraphModel dx="1730" dy="1568" grid="1" gridSize="10" guides="1" tooltips="1" connect="1" arrows="1" fold="1" page="1" pageScale="1" pageWidth="850" pageHeight="1100" math="0" shadow="0">
      <root>
        <mxCell id="0" />
        <mxCell id="1" parent="0" />
        <mxCell id="oDZCgxr22LB6qeapUHRo-1" value="Mulai Program" style="whiteSpace=wrap;strokeWidth=2;" vertex="1" parent="1">
          <mxGeometry x="85" y="-10" width="163" height="49" as="geometry" />
        </mxCell>
        <mxCell id="oDZCgxr22LB6qeapUHRo-2" value="Inisialisasi Serial 9600 baud" style="whiteSpace=wrap;strokeWidth=2;" vertex="1" parent="1">
          <mxGeometry x="39" y="89" width="256" height="49" as="geometry" />
        </mxCell>
        <mxCell id="oDZCgxr22LB6qeapUHRo-3" value="Atur Mode WiFi ke WIFI_STA" style="whiteSpace=wrap;strokeWidth=2;" vertex="1" parent="1">
          <mxGeometry x="36" y="188" width="261" height="49" as="geometry" />
        </mxCell>
        <mxCell id="oDZCgxr22LB6qeapUHRo-4" value="Inisialisasi ESP-NOW Berhasil" style="rhombus;strokeWidth=2;whiteSpace=wrap;" vertex="1" parent="1">
          <mxGeometry x="62" y="287" width="210" height="210" as="geometry" />
        </mxCell>
        <mxCell id="oDZCgxr22LB6qeapUHRo-5" value="Cetak Gagal menginisialisasi ESP-NOW" style="whiteSpace=wrap;strokeWidth=2;" vertex="1" parent="1">
          <mxGeometry x="-30" y="570" width="242" height="67" as="geometry" />
        </mxCell>
        <mxCell id="oDZCgxr22LB6qeapUHRo-6" value="Selesai" style="whiteSpace=wrap;strokeWidth=2;" vertex="1" parent="1">
          <mxGeometry x="36" y="686" width="109" height="49" as="geometry" />
        </mxCell>
        <mxCell id="oDZCgxr22LB6qeapUHRo-7" value="Registrasi Callback Penerimaan Data" style="whiteSpace=wrap;strokeWidth=2;" vertex="1" parent="1">
          <mxGeometry x="262" y="570" width="195" height="67" as="geometry" />
        </mxCell>
        <mxCell id="oDZCgxr22LB6qeapUHRo-8" value="Menunggu Data" style="whiteSpace=wrap;strokeWidth=2;" vertex="1" parent="1">
          <mxGeometry x="274" y="686" width="170" height="49" as="geometry" />
        </mxCell>
        <mxCell id="oDZCgxr22LB6qeapUHRo-9" value="Data Diterima" style="rhombus;strokeWidth=2;whiteSpace=wrap;" vertex="1" parent="1">
          <mxGeometry x="167" y="808" width="149" height="149" as="geometry" />
        </mxCell>
        <mxCell id="oDZCgxr22LB6qeapUHRo-10" value="Panggil Fungsi onDataRecv" style="whiteSpace=wrap;strokeWidth=2;" vertex="1" parent="1">
          <mxGeometry x="117" y="1031" width="250" height="49" as="geometry" />
        </mxCell>
        <mxCell id="oDZCgxr22LB6qeapUHRo-11" value="Tampilkan Alamat MAC" style="whiteSpace=wrap;strokeWidth=2;" vertex="1" parent="1">
          <mxGeometry x="130" y="1130" width="224" height="49" as="geometry" />
        </mxCell>
        <mxCell id="oDZCgxr22LB6qeapUHRo-12" value="Salin Data ke Buffer" style="whiteSpace=wrap;strokeWidth=2;" vertex="1" parent="1">
          <mxGeometry x="140" y="1229" width="204" height="49" as="geometry" />
        </mxCell>
        <mxCell id="oDZCgxr22LB6qeapUHRo-13" value="Tampilkan Pesan" style="whiteSpace=wrap;strokeWidth=2;" vertex="1" parent="1">
          <mxGeometry x="291" y="1328" width="179" height="49" as="geometry" />
        </mxCell>
        <mxCell id="oDZCgxr22LB6qeapUHRo-14" value="" style="curved=1;startArrow=none;endArrow=block;exitX=0.5;exitY=1;entryX=0.5;entryY=0;rounded=0;" edge="1" parent="1" source="oDZCgxr22LB6qeapUHRo-1" target="oDZCgxr22LB6qeapUHRo-2">
          <mxGeometry relative="1" as="geometry">
            <Array as="points" />
          </mxGeometry>
        </mxCell>
        <mxCell id="oDZCgxr22LB6qeapUHRo-15" value="" style="curved=1;startArrow=none;endArrow=block;exitX=0.5;exitY=1;entryX=0.5;entryY=0;rounded=0;" edge="1" parent="1" source="oDZCgxr22LB6qeapUHRo-2" target="oDZCgxr22LB6qeapUHRo-3">
          <mxGeometry relative="1" as="geometry">
            <Array as="points" />
          </mxGeometry>
        </mxCell>
        <mxCell id="oDZCgxr22LB6qeapUHRo-16" value="" style="curved=1;startArrow=none;endArrow=block;exitX=0.5;exitY=1;entryX=0.5;entryY=0;rounded=0;" edge="1" parent="1" source="oDZCgxr22LB6qeapUHRo-3" target="oDZCgxr22LB6qeapUHRo-4">
          <mxGeometry relative="1" as="geometry">
            <Array as="points" />
          </mxGeometry>
        </mxCell>
        <mxCell id="oDZCgxr22LB6qeapUHRo-17" value="Tidak" style="curved=1;startArrow=none;endArrow=block;exitX=0.23;exitY=1;entryX=0.5;entryY=0;rounded=0;" edge="1" parent="1" source="oDZCgxr22LB6qeapUHRo-4" target="oDZCgxr22LB6qeapUHRo-5">
          <mxGeometry relative="1" as="geometry">
            <Array as="points">
              <mxPoint x="91" y="533" />
            </Array>
          </mxGeometry>
        </mxCell>
        <mxCell id="oDZCgxr22LB6qeapUHRo-18" value="" style="curved=1;startArrow=none;endArrow=block;exitX=0.5;exitY=0.99;entryX=0.51;entryY=0.01;rounded=0;" edge="1" parent="1" source="oDZCgxr22LB6qeapUHRo-5" target="oDZCgxr22LB6qeapUHRo-6">
          <mxGeometry relative="1" as="geometry">
            <Array as="points" />
          </mxGeometry>
        </mxCell>
        <mxCell id="oDZCgxr22LB6qeapUHRo-19" value="Ya" style="curved=1;startArrow=none;endArrow=block;exitX=1;exitY=0.87;entryX=0.5;entryY=0;rounded=0;" edge="1" parent="1" source="oDZCgxr22LB6qeapUHRo-4" target="oDZCgxr22LB6qeapUHRo-7">
          <mxGeometry relative="1" as="geometry">
            <Array as="points">
              <mxPoint x="360" y="533" />
            </Array>
          </mxGeometry>
        </mxCell>
        <mxCell id="oDZCgxr22LB6qeapUHRo-20" value="" style="curved=1;startArrow=none;endArrow=block;exitX=0.5;exitY=0.99;entryX=0.5;entryY=0.01;rounded=0;" edge="1" parent="1" source="oDZCgxr22LB6qeapUHRo-7" target="oDZCgxr22LB6qeapUHRo-8">
          <mxGeometry relative="1" as="geometry">
            <Array as="points" />
          </mxGeometry>
        </mxCell>
        <mxCell id="oDZCgxr22LB6qeapUHRo-21" value="" style="curved=1;startArrow=none;endArrow=block;exitX=0.18;exitY=1.01;entryX=0.41;entryY=0;rounded=0;" edge="1" parent="1" source="oDZCgxr22LB6qeapUHRo-8" target="oDZCgxr22LB6qeapUHRo-9">
          <mxGeometry relative="1" as="geometry">
            <Array as="points">
              <mxPoint x="221" y="772" />
            </Array>
          </mxGeometry>
        </mxCell>
        <mxCell id="oDZCgxr22LB6qeapUHRo-22" value="Tidak" style="curved=1;startArrow=none;endArrow=block;exitX=0.77;exitY=0;entryX=0.36;entryY=1.01;rounded=0;" edge="1" parent="1" source="oDZCgxr22LB6qeapUHRo-9" target="oDZCgxr22LB6qeapUHRo-8">
          <mxGeometry relative="1" as="geometry">
            <Array as="points">
              <mxPoint x="301" y="772" />
            </Array>
          </mxGeometry>
        </mxCell>
        <mxCell id="oDZCgxr22LB6qeapUHRo-23" value="Ya" style="curved=1;startArrow=none;endArrow=block;exitX=0.5;exitY=1.01;entryX=0.5;entryY=0;rounded=0;" edge="1" parent="1" source="oDZCgxr22LB6qeapUHRo-9" target="oDZCgxr22LB6qeapUHRo-10">
          <mxGeometry relative="1" as="geometry">
            <Array as="points" />
          </mxGeometry>
        </mxCell>
        <mxCell id="oDZCgxr22LB6qeapUHRo-24" value="" style="curved=1;startArrow=none;endArrow=block;exitX=0.5;exitY=1;entryX=0.5;entryY=0;rounded=0;" edge="1" parent="1" source="oDZCgxr22LB6qeapUHRo-10" target="oDZCgxr22LB6qeapUHRo-11">
          <mxGeometry relative="1" as="geometry">
            <Array as="points" />
          </mxGeometry>
        </mxCell>
        <mxCell id="oDZCgxr22LB6qeapUHRo-25" value="" style="curved=1;startArrow=none;endArrow=block;exitX=0.5;exitY=1;entryX=0.5;entryY=0;rounded=0;" edge="1" parent="1" source="oDZCgxr22LB6qeapUHRo-11" target="oDZCgxr22LB6qeapUHRo-12">
          <mxGeometry relative="1" as="geometry">
            <Array as="points" />
          </mxGeometry>
        </mxCell>
        <mxCell id="oDZCgxr22LB6qeapUHRo-26" value="" style="curved=1;startArrow=none;endArrow=block;exitX=0.5;exitY=1;entryX=0.12;entryY=0;rounded=0;" edge="1" parent="1" source="oDZCgxr22LB6qeapUHRo-12" target="oDZCgxr22LB6qeapUHRo-13">
          <mxGeometry relative="1" as="geometry">
            <Array as="points">
              <mxPoint x="242" y="1303" />
            </Array>
          </mxGeometry>
        </mxCell>
        <mxCell id="oDZCgxr22LB6qeapUHRo-27" value="" style="curved=1;startArrow=none;endArrow=block;exitX=0.56;exitY=0;entryX=0.6;entryY=1.01;rounded=0;" edge="1" parent="1" source="oDZCgxr22LB6qeapUHRo-13" target="oDZCgxr22LB6qeapUHRo-8">
          <mxGeometry relative="1" as="geometry">
            <Array as="points">
              <mxPoint x="402" y="1303" />
              <mxPoint x="402" y="772" />
            </Array>
          </mxGeometry>
        </mxCell>
      </root>
    </mxGraphModel>
  </diagram>
</mxfile>
